<?xml version="1.0" encoding="UTF-8"?>
<svg xmlns="http://www.w3.org/2000/svg" version="1.1" viewBox="0 0 50 50">
  <defs>
    <style>
      .cls-1 {
        fill: #1174b9;
      }

      .cls-1, .cls-2 {
        stroke-width: 2px;
      }

      .cls-1, .cls-2, .cls-3 {
        stroke: #ab08ff;
        stroke-miterlimit: 10;
      }

      .cls-2, .cls-3 {
        fill: #ab08ff;
      }

      .cls-4 {
        fill: #fffdee;
      }
    </style>
  </defs>
  <!-- Generator: Adobe Illustrator 28.7.4, SVG Export Plug-In . SVG Version: 1.2.0 Build 166)  -->
  <g>
    <g id="Layer_1">
      <rect class="cls-4" width="50" height="50"/>
      <path class="cls-1" d="M41.4,24.9l-1.5-.2h-1.2c0,0-6.2,0-6.2,0h-1.3c0-.1-1.5-.2-1.5-.2h-1.5s-2,0-2,0h-1.6c0,0-1.4,0-1.4,0h-3.2c0-.1-1.6,0-1.6,0h-9.5c0-.1-.5-.3-.5-.3l-.6-.5-.5-.8v-1c-.1,0-.1-1.2-.1-1.2l.2-.6.3-.5.2-.4.3-.5.4-.5.2-.4.5-.2h.7c0-.1,2.4-.1,2.4-.1h1.1c0-.1,1.4-.1,1.4-.1h1.2c0,0,1.4,0,1.4,0h1.2c0,0,1.8,0,1.8,0h.8c0,.1.5,0,.5,0h1.3c0,.1,1.6.2,1.6.2h1.3s1.2,0,1.2,0h1s1.6,0,1.6,0h2.8c0,0,1.6-.2,1.6-.2h.8c0,.1,1.5,0,1.5,0h1.3s1.3.1,1.3.1h1.6s1.1,0,1.1,0l.8.2.4.5.2.6v.6c.1,0,.1,1.7.1,1.7v.6c-.1,0-.2.8-.2.8v.8c-.1,0-.3.7-.3.7l-.4.5-.6.5h0ZM32.6,24h7.4c0,0,1.1.2,1.1.2l.3-.2.3-.3.2-.6v-.8c.1,0,.2-.8.2-.8v-.6c.1,0,.1-1.6.1-1.6v-.5c-.1,0-.3-.5-.3-.5l-.2-.2h-.5c0-.1-.9-.1-.9-.1h-1.7s-1.3,0-1.3,0h-1.2s-1.6,0-1.6,0h-.8c0-.1-1.5,0-1.5,0h-1.5c0,0-1.3,0-1.3,0h-1.6c0,0-1,0-1,0h-2.5s-1.6,0-1.6,0h-1.2c0-.1-.6,0-.6,0h-.8c0-.1-1.7-.1-1.7-.1h-1.2c0,0-1.4,0-1.4,0h-1.2c0,0-1.3,0-1.3,0h-1.1c0,.1-2.4.1-2.4.1h-.5c0,0-.2.2-.2.2v.2c-.1,0-.5.5-.5.5l-.2.5-.2.4-.2.4v.5c-.1,0-.1,1.1-.1,1.1v.8c.1,0,.5.6.5.6l.4.3h.3c0,0,1.2.2,1.2.2h9.8c0-.1,3.3,0,3.3,0h2.9c0,0,2-.1,2-.1h1.6s1.6,0,1.6,0h1.3c0,.1,0,.1,0,.1Z"/>
      <polygon class="cls-2" points="37.8 39.3 36.9 39.3 34.9 39.2 30.1 39.2 30.1 39.2 27.6 39.1 25.6 39.1 23.1 38.9 20.8 38.9 20.8 38.9 18.4 38.8 16.6 38.7 14.4 38.9 13.7 38.7 13.1 38.2 12.5 37.7 12 36.7 11.8 35.1 11.7 34 11.7 30.2 11.8 29.1 11.8 28.3 12 27.1 12 26.2 12.1 25.2 12.3 24.5 13.1 24.7 12.9 25.3 12.8 26.2 12.8 27.2 12.6 28.3 12.6 29.1 12.5 30.2 12.5 34 12.7 35.1 12.8 36.5 13.2 37.3 13.7 37.8 14.1 38.1 14.5 38.2 16.5 38.1 18.4 38.1 20.8 38.2 23.1 38.2 25.6 38.5 27.6 38.5 27.6 38.5 30.1 38.6 34.9 38.6 35 38.6 36.9 38.6 37.7 38.6 38 38.6 38.2 38.3 38.3 37 38.6 35.1 38.6 30 38.4 28.6 38.6 27.3 38.8 26.2 38.7 25.4 38.6 24.4 39.5 24.3 39.6 25.4 39.7 26.3 39.4 27.4 39.2 28.6 39.4 30 39.4 35.2 39.2 37 39 38.4 38.6 39.1 37.8 39.3"/>
      <path class="cls-3" d="M32.7,34.9h-13.7c0-.1-.8-.1-.8-.1l-.8-.2-.7-.7-.5-.8-.3-1-.2-1.2v-1.2l.3-1,.6-1,.7-.4h7.9s2.5,0,2.5,0h1.6s1.4,0,1.4,0h1.4s1.1,0,1.1,0h.8c0,.1.5.3.5.3l.4.6.2.7.2,1v.8l-.2,1v1c-.1,0-.6,1-.6,1l-.6.5-1.2.4h0ZM20.5,34.3h12.1l.9-.3.3-.3.4-.8v-1c.1,0,.3-1,.3-1v-.7l-.2-1-.2-.6-.2-.3h-.2s-.7-.2-.7-.2h-1c0,0-1.3,0-1.3,0h-1.4s-1.6,0-1.6,0h-2.4c0,0-7.6,0-7.6,0l-.3.2-.5.8-.2.9v1.1l.2,1.1.3.9.4.7.5.5h.4c0,.1.7.1.7.1h1.3c0,.1,0,.1,0,.1Z"/>
      <path class="cls-3" d="M26.9,17.1c-.1,0-.2,0-.3-.1l-1.8-1.4-2-1-3.7-.9c-.2,0-1.4-.4-1.3-.6,0-.2,1.3-.1,1.5-.1l14.6.4c.2,0,.4.1.4.3s0,.3-.2.4l-6.9,3c0,0-.2,0-.2,0h0ZM21.7,13.7l1.4.4s0,0,.1,0l2,1s0,0,0,0l1.7,1.3,5.6-2.4s-10.9-.3-10.9-.3ZM24.7,15.6s0,0,0,0h0Z"/>
      <polygon class="cls-1" points="29.9 13.4 29.1 13.4 29.1 12.5 29.1 11.5 29.2 10.6 29.3 9.8 29.4 9 29.4 8.3 29.5 7.9 29.2 8 28.3 8 27.7 7.9 27 7.7 26.2 7.7 25.7 7.7 25.5 8.1 25.5 8.8 25.7 9.6 25.8 10.6 25.9 11.5 26 12.3 25.8 13.4 25 13.3 25.1 12.3 25.1 11.5 24.9 10.6 24.9 9.7 24.7 8.9 24.7 8 25 7.1 26.2 7 27.1 7.1 27.9 7.2 28.4 7.3 29.2 7.3 30.7 7.2 30.2 8.4 30.2 9 30.1 9.9 30 10.6 30 11.5 29.9 12.5 29.9 13.4"/>
      <path d="M17.6,32.3s0,0,0-.1,0,0,0-.1c0-.5,0-1,0-1.6s0-.5,0-1.1c0,0,0,0,.1-.1s.1,0,.1,0,0,0,0,0c.5.1.9.4,1.2.8.4.4.5.8.6,1.4,0,.6-.2,1-.7,1.1-.1,0-.3,0-.4,0s-.3,0-.4,0c0,0,0,0,0,.1s0,0,0,.1c0,0-.1,0-.2,0s-.1,0-.1-.1v-.3c0,0,0,0,0,0ZM17.9,30.4c0,.6,0,1.1,0,1.7,0,0,.2,0,.4,0s.4,0,.5,0c.2,0,.3-.2.3-.3,0,0,0-.2,0-.2,0-.4-.1-.8-.3-1.2-.2-.3-.6-.6-1-.8,0,.4,0,.7,0,.8h0Z"/>
      <path d="M21.3,29.2c.2,0,.4,0,.6.2.3.3.5.7.5,1.4s-.2,1.1-.5,1.5c-.2.2-.4.3-.6.3-.3,0-.6-.1-.7-.3-.2-.2-.3-.5-.4-.7,0-.3-.1-.5-.1-.8,0-.4.1-.8.3-1.1.2-.3.6-.4,1-.4h0ZM21.2,29.6c-.4,0-.7.2-.8.6,0,.1,0,.3,0,.4s0,.4.1.6c0,.3.2.5.4.7.1,0,.2.1.4.1s.3,0,.4-.2.2-.3.2-.5c0-.2,0-.4,0-.6,0-.4,0-.7-.2-.9-.1-.2-.3-.3-.5-.3h0Z"/>
      <path d="M24.2,32.5c0,0-.1,0-.2,0s-.1,0-.1-.1c0-.4,0-.9,0-1.3v-1.3c0-.3,0-.4.3-.5.2,0,.4-.1.6-.1s.3,0,.4,0c.1,0,.3.2.4.3.1.1.2.2.2.4s0,.3-.2.4c-.1.2-.3.3-.5.4-.2.1-.4.2-.5.3.3.2.6.4.8.7.2.2.3.4.3.6s0,0,0,.1c0,0,0,0-.2,0s-.1,0-.2,0c0-.2-.2-.4-.4-.6-.2-.2-.4-.4-.7-.6v1c0,0,0,.1,0,.2h0ZM25,30.5c.3-.2.4-.3.4-.5s0-.3-.2-.3c-.1,0-.3-.1-.5-.1s-.3,0-.5,0c0,.2,0,.5,0,1.1.2,0,.5-.1.8-.3h0Z"/>
      <path d="M26.2,30.8s0,0,0-.1,0-.1,0-.2c0-.3,0-.7,0-1.1,0,0,0-.1,0-.2,0,0,.1,0,.2,0,.4,0,.9,0,1.4,0,.1,0,.2,0,.2.2,0,.1-.1.2-.4.2,0,0-.2,0-.2,0h-.3c0,0-.2,0-.5,0,0,.4,0,.7,0,.9.2,0,.5,0,1,0,.1,0,.2,0,.2.2s0,.2-.1.2c0,0,0,0,0,0h-.9c0,0,0,0-.1,0v.9c0,.2,0,.3,0,.4h1.2c.1,0,.2,0,.2.1s0,0,0,.1c0,0,0,0-.2,0h-1.3c0,0-.1,0-.2,0,0,0,0,0,0-.1,0,0,0-.2,0-.5v-1.1s0,0,0,0Z"/>
      <path d="M31.8,29.2c0,0,.1,0,.2.2,0,.5,0,1.1,0,1.8s0,1,0,1.1c0,0,0,.2,0,.2s-.1,0-.2,0-.1,0-.1-.2v-1.1c0-.2,0-.4,0-.6s0-.3,0-.4c-.1.2-.3.4-.5.5s-.4.2-.6.2-.4,0-.6-.3c0,.2,0,.4,0,.7s0,.6,0,.9c0,0,0,.1,0,.2,0,0-.1,0-.2,0s-.1,0-.1-.2c0-.3,0-.8,0-1.4v-1.4c0,0,0-.1,0-.2s0,0,.1,0,0,0,.1,0c0,0,0,0,0,.1,0,.4,0,.6.2.8s.2.3.4.3.3,0,.4,0c.1,0,.2-.1.3-.2,0,0,.1-.2.2-.3,0-.2.2-.4.3-.6,0-.1.1-.2.2-.2h0Z"/>
      <path d="M32.8,29.3c0,0,.1,0,.2,0s.1,0,.1.1c0,.4,0,1,0,1.7,0,.5,0,.9,0,1.2,0,0,0,0,0,.1,0,0-.1,0-.2,0,0,0-.1,0-.1-.1,0-.3,0-.7,0-1.2v-1.7s0,0,0-.1Z"/>
    </g>
  </g>
</svg>