<?xml version="1.0" encoding="UTF-8"?><svg id="Layer_1" xmlns="http://www.w3.org/2000/svg" viewBox="0 0 50 50"><defs><style>.cls-1{fill:#1174b9;}.cls-2{fill:#fffdee;}</style></defs><rect class="cls-2" x="1.5" y="1.5" width="47" height="47" rx="8.6035" ry="8.6035"/><path class="cls-1" d="M39.8964,3c3.9169,0,7.1036,3.1867,7.1036,7.1036v29.7929c0,3.9169-3.1867,7.1036-7.1036,7.1036H10.1036c-3.9169,0-7.1036-3.1867-7.1036-7.1036V10.1036c0-3.9169,3.1867-7.1036,7.1036-7.1036h29.7929M39.8964,0H10.1036C4.5235,0,0,4.5235,0,10.1036v29.7929c0,5.5801,4.5235,10.1036,10.1036,10.1036h29.7929c5.5801,0,10.1036-4.5235,10.1036-10.1036V10.1036c0-5.5801-4.5235-10.1036-10.1036-10.1036h0Z"/><path class="cls-1" d="M41.3886,24.9353l-1.4522-.1932-1.2231-.0814h-6.1665l-1.3161-.1262-1.4968-.0411-1.5368.0207-2.0238.0624-1.575.0841-1.3973-.0003-3.2248-.1038-1.65.1041h-8.1654l-1.3597-.1121-.5409-.1973-.5742-.4987-.5411-.8219-.1451-.9983v-1.2113l.15-.5754.2529-.4832.1843-.3911.251-.545.3597-.519.2405-.376.5392-.2408.7215-.1226h2.3702l1.0919-.1465h1.3798l1.2339-.0837h1.4054l1.2174-.0837h1.8462l.7672.1033.5486-.0204,1.2782.1063,1.5796.0617,1.2787-.0208,1.2263.0004.9921.0408,1.5683-.0831h1.3378l1.5073-.0827,1.5574-.108.8085.1065,1.4999-.0206,1.2603.0431,1.2608.0821,1.6478-.0415,1.0642.0225.8327.217.4168.4739.1819.5936.1419.5546v1.7015l-.1101.6296-.1074.776-.1361.8301-.2085.7451-.4154.4745-.6339.4955ZM32.5974,24.0122h6.1511l1.2928.086,1.0638.1415.2762-.2159.2805-.3205.1662-.5939.131-.7987.108-.78.1032-.5904v-1.5932l-.1242-.4855-.1408-.4585-.1721-.1956-.452-.1178-.9165-.0194-1.6711.0421-1.3004-.0847-1.2104-.0411-1.5514.0213-.7791-.1027-1.4627.1014-1.5402.0845h-1.3387l-1.5901.0843-1.0312-.0424h-1.1893l-1.2951.0211-1.6438-.0647-1.2263-.102-.5756.0214-.7868-.1059h-1.7389l-1.2174.0837h-1.4059l-1.2339.0837h-1.345l-1.0919.1465h-2.3517l-.5097.0866-.2103.0939-.1375.2145-.333.4806-.2313.5023-.1927.4082-.2261.4321-.1177.4516v1.1092l.1226.8439.4225.6417.3894.3382.2621.0956,1.1782.0971h8.0883l1.667-.1052,3.2667.1052h1.3434l1.5646-.0834,2.0434-.063,1.5633-.0211,1.5545.0426,1.3016.1248Z"/><polygon class="cls-1" points="37.8184 39.2856 36.9154 39.2852 34.9227 39.202 30.1034 39.202 30.0945 39.2017 27.6084 39.1183 25.5914 39.1183 23.0781 38.8881 20.7962 38.8881 20.7824 38.8874 18.3988 38.7624 16.5579 38.7419 14.4263 38.8933 13.6746 38.6797 13.0502 38.2404 12.4825 37.6565 11.9954 36.6721 11.8461 35.1394 11.7108 34.0454 11.7119 30.213 11.8178 29.077 11.8178 28.2945 11.9784 27.1169 11.9784 26.206 12.0894 25.1655 12.2788 24.5155 13.0878 24.6596 12.9114 25.2649 12.8082 26.233 12.8082 27.1513 12.6476 28.329 12.6476 29.1006 12.5405 30.2484 12.5405 34.0141 12.6732 35.087 12.8135 36.5274 13.2141 37.337 13.6635 37.7992 14.1098 38.1132 14.5357 38.2343 16.5262 38.0929 18.4434 38.1147 20.8241 38.2395 23.1265 38.2395 25.6399 38.4697 27.6261 38.4697 27.635 38.47 30.1212 38.5534 34.9448 38.5534 34.9559 38.5538 36.9487 38.637 37.6985 38.637 37.9994 38.5676 38.1646 38.2707 38.3451 36.9599 38.5836 35.1369 38.5836 30.0291 38.3937 28.6453 38.5909 27.3092 38.8475 26.2467 38.7453 25.4271 38.6479 24.382 39.4754 24.3349 39.5725 25.3759 39.6848 26.276 39.409 27.418 39.2286 28.6477 39.4134 29.9944 39.4134 35.17 39.1703 37.0276 38.976 38.4385 38.6058 39.104 37.8184 39.2856"/><path class="cls-1" d="M32.7375,34.9233h-12.3236l-1.3281-.1255h-.7692l-.8025-.2182-.6976-.6941-.4943-.8409-.283-.9545-.2465-1.1776v-1.2231l.2591-1.022.6056-1.0177.7401-.405,7.9463.0003,2.4565.0836,1.6037.0418,1.355.0415,1.384-.0212,1.0929.1095.7997.134.5342.1606.3882.6069.2329.6827.1675,1.0476v.8053l-.1633,1.0318-.1393,1.0455-.5038,1.0192-.5741.5015-1.2404.3878ZM20.4655,34.2538h12.1071l.9009-.2817.336-.2935.4063-.822.1289-.9663.1574-.9941v-.7223l-.1537-.9609-.1954-.5727-.2006-.3137-.1616-.0486-.6992-.1171-.9948-.0997-1.3461.0206-1.3776-.0422-1.6078-.0419-2.4493-.0834h-7.6484l-.3305.1808-.4651.7816-.2227.8784v1.1029l.233,1.1129.2546.8558.4158.7073.48.4776.4288.1166h.6761l1.3281.1255Z"/><path class="cls-1" d="M26.91,17.0758c-.1205,0-.2394-.0359-.3311-.1051l-1.8362-1.3846-1.9814-.9757-3.7035-.9464c-.2286-.0584-.364-.2351-.3221-.4202.042-.1851.2471-.3143.4872-.3081l14.6375.4001c.214.0059.3982.1236.448.2864s-.0463.333-.2338.4139l-6.9331,2.9929c-.0731.0316-.1527.047-.2316.047ZM21.6804,13.6517l1.3801.3527c.0371.0095.0729.0226.1062.039l2.0489,1.009c.0279.0138.0538.0297.0773.0474l1.675,1.2631,5.5916-2.4138-10.8791-.2974ZM24.7166,15.5664s.0003.0002.0004.0003l-.0004-.0003Z"/><polygon class="cls-1" points="29.8848 13.4358 29.055 13.4358 29.0557 12.5171 29.1359 11.4518 29.1902 10.585 29.2704 9.8122 29.3504 8.957 29.4069 8.2721 29.5357 7.9428 29.2156 7.9644 28.3304 7.9867 27.6964 7.8684 26.984 7.7092 26.2136 7.6528 25.6547 7.7131 25.5219 8.1226 25.5219 8.8249 25.7076 9.6336 25.7618 10.5644 25.8954 11.475 25.9511 12.3108 25.8418 13.3576 25.0148 13.3048 25.1196 12.3012 25.0681 11.5288 24.9342 10.6162 24.8812 9.7059 24.6922 8.8826 24.6922 8.0417 24.9877 7.1304 26.1953 7 27.138 7.0691 27.9155 7.2427 28.4146 7.3356 29.1773 7.3164 30.6889 7.2121 30.2287 8.3893 30.1781 9.0029 30.0975 9.8633 30.0178 10.6322 29.9644 11.4881 29.8848 12.5456 29.8848 13.4358"/><path d="M17.6445,32.3438c-.0498-.0361-.0747-.0771-.0747-.1221s.0181-.083.0547-.1123c-.0635-.4775-.0947-1.0234-.0947-1.6406,0-.1865.0083-.5498.0249-1.0898.0166-.0498.0508-.0938.1025-.1299s.1006-.0557.1475-.0557c.0464,0,.0747.002.085.0059.4766.1328.8916.3906,1.2451.7725.353.3818.5381.8389.5547,1.3721,0,.5869-.2432.9551-.73,1.1055-.1396.043-.2876.0645-.4424.0645s-.291-.0117-.4077-.0352c.0137.0273.02.0625.02.1074,0,.0459-.0273.0889-.0825.1309-.0547.041-.1196.0625-.1948.0625-.0747,0-.1226-.0449-.1426-.1357l-.0649-.2998ZM17.9448,30.4287c0,.584.0332,1.1367.0996,1.6602.0801.0234.2153.0352.4053.0352s.3726-.0322.5474-.0947c.1748-.0635.2676-.1572.2773-.2803.0103-.0938.0151-.165.0151-.2148,0-.4336-.1157-.8174-.3477-1.1504-.2314-.333-.5557-.5869-.9722-.7598-.0166.3936-.0249.6611-.0249.8047Z"/><path d="M21.2539,29.1787c.2344,0,.4316.0752.5957.2256.3203.2861.4805.7393.4805,1.3574s-.1768,1.1035-.5303,1.457c-.1836.1768-.3955.2734-.6357.29-.3164,0-.563-.1084-.7393-.3252-.1768-.2168-.3027-.459-.3779-.7275-.0747-.2676-.1123-.5273-.1123-.7773,0-.4268.1016-.7783.3052-1.0547.2134-.2969.5513-.4453,1.0142-.4453ZM21.2197,29.5938c-.4468,0-.7251.2119-.835.6348-.0337.1133-.0503.2588-.0503.4355s.0332.3818.1001.6152c.0898.3125.2231.5332.3999.6592.1035.0801.228.1201.3745.1201.1475,0,.2793-.0654.3955-.1973s.1963-.2988.2402-.502c.043-.2041.0645-.4092.0645-.6152,0-.3672-.0518-.6504-.1572-.8506-.1055-.1992-.2822-.2998-.5322-.2998Z"/><path d="M24.1689,32.4512c-.0527.0488-.1104.0723-.1719.0723s-.1045-.0391-.1279-.1191c-.0098-.4404-.0146-.8789-.0146-1.3154l-.0156-1.2598c0-.2539.1123-.4268.335-.5205.1807-.083.3936-.125.6406-.125.127,0,.2627.0312.4072.0928.1455.0615.2754.1514.3896.2705.1152.1182.1729.2461.1729.3848,0,.1377-.0635.2861-.1895.4443-.127.1592-.2842.2988-.4707.4209-.1865.1211-.3682.2119-.5449.2725.3105.2158.5801.4492.8105.6973.2295.248.3447.4404.3447.5771,0,.0439-.0215.084-.0654.123-.043.0381-.0957.0566-.1572.0566s-.1143-.0264-.1572-.0791c-.0732-.1768-.2129-.3633-.418-.5576-.2051-.1953-.4443-.3809-.7168-.5576l.0293.96c0,.0596-.0264.1143-.0801.1621ZM24.9814,30.5088c.2783-.1768.418-.3359.418-.4775s-.0703-.251-.21-.3271c-.1406-.0771-.3057-.1152-.498-.1152-.1914,0-.3438.0234-.457.0703-.0039.1699-.0049.5469-.0049,1.1299.2227-.0098.4736-.1035.752-.2803Z"/><path d="M26.2002,30.7842c-.0469-.0303-.0703-.0732-.0703-.1299s.0186-.1084.0547-.1553c-.0127-.333-.0195-.6855-.0195-1.0557.0195-.0801.0508-.1377.0918-.1738.042-.0371.1025-.0605.1826-.0703.4404.0195.917.0293,1.4307.0293.126.0273.1895.082.1895.166,0,.1396-.1367.2207-.4102.2441-.0732.0039-.1533.0049-.2393.0049h-.3252c-.0635,0-.2383-.0127-.5254-.04,0,.417.0068.7041.0205.8604.1768.0029.5166.0049,1.0195.0049.1201.0234.1807.0781.1807.1631s-.0488.1504-.1455.1973c-.0098.0068-.0283.0127-.0547.0195l-.8652-.0146c-.0537,0-.0967.0029-.1299.0098l.0195.8604c0,.1934-.0049.3311-.0146.415l1.1602-.0156c.1064.0176.1602.0625.1602.1357,0,.0498-.0225.0996-.0674.1494-.0459.0498-.0977.082-.1582.0957l-1.2793.0195c-.0771,0-.1309-.0137-.1602-.043-.0303-.0273-.0449-.0752-.0449-.1416.0127-.0938.0195-.2441.0195-.4502v-.3506l-.0195-.7344Z"/><path d="M31.8496,29.1738c.0791,0,.1309.0586.1543.1758.0166.543.0254,1.1348.0254,1.7764,0,.6426-.0039,1.0127-.0098,1.1133-.0068.0996-.0283.1699-.0654.21s-.1035.0596-.2002.0596c-.0869,0-.1299-.0527-.1299-.1602v-1.1299c0-.1836-.0029-.3711-.0098-.5645s-.0098-.3154-.0098-.3652c-.1133.1934-.2637.3525-.4502.4775s-.3955.1875-.625.1875c-.2305,0-.4238-.0947-.5801-.2852-.0068.2031-.0098.4443-.0098.7227s.001.5703.0049.877c0,.084-.0273.1445-.083.1826-.0547.0391-.1172.0576-.1875.0576-.0898,0-.1348-.0547-.1348-.165.0029-.2998.0049-.7744.0049-1.4248v-1.4199c0-.0566.0195-.1123.0576-.165s.083-.0801.1348-.0801.0996.0137.1426.043c.0439.0273.0674.0703.0703.127.0137.3701.0732.6455.1797.8252s.2334.2695.3799.2695c.1475,0,.2725-.0234.3779-.0723.1045-.0479.1914-.1045.2598-.167.0684-.0635.1348-.1533.1973-.2705.0908-.167.1768-.3711.2607-.6143.0498-.1475.1309-.2207.2451-.2207Z"/><path d="M32.7568,29.3242c.0518-.0332.1113-.0508.1777-.0508s.1084.0391.125.1152c.0039.3867.0098.9648.0205,1.7354,0,.4697-.0137.8682-.04,1.1953-.0068.0498-.0381.0938-.0928.1318-.0547.0391-.1113.0576-.168.0576-.0928,0-.1396-.0479-.1396-.1445.0332-.334.0498-.7471.0498-1.2402l-.0293-1.6807c.0127-.0459.0449-.0859.0967-.1191Z"/></svg>