<?xml version="1.0" encoding="UTF-8"?>
<svg xmlns="http://www.w3.org/2000/svg" version="1.1" viewBox="0 0 53 53">
  <defs>
    <style>
      .cls-1 {
        fill: #1174b9;
        stroke-width: 2px;
      }

      .cls-1, .cls-2 {
        stroke: #1174b9;
        stroke-miterlimit: 10;
      }

      .cls-2 {
        stroke-width: 4px;
      }

      .cls-2, .cls-3 {
        fill: #fffdee;
      }
    </style>
  </defs>
  <!-- Generator: Adobe Illustrator 28.7.4, SVG Export Plug-In . SVG Version: 1.2.0 Build 166)  -->
  <g>
    <g id="Layer_1">
      <rect class="cls-3" x="3" y="3.3" width="47" height="47" rx="8.5" ry="8.5"/>
      <rect class="cls-2" x="1.5" y="1.5" width="50" height="50" rx="10.1" ry="10.1"/>
      <polygon class="cls-1" points="13.3 34.9 12.6 34.4 12.2 33.7 11.9 32.7 11.5 31.5 11.5 28.9 12.3 28.9 12.3 31.4 12.6 32.5 13 33.4 13.3 33.8 13.5 34 13.9 33.8 14.4 33.4 14.9 32.4 15.3 31.7 15.7 30.4 16 29.1 16.1 27.8 16.3 26.7 16.3 23.2 16.2 22.1 16.2 21.6 16.1 21.2 16 21 15.6 20.9 15.3 20.9 14.6 21.2 14.2 21.7 13.7 22.3 13.2 22.9 12.9 23.6 12.7 24.5 12.5 25.5 11.7 25.4 11.9 24.3 12.1 23.3 12.5 22.5 13 21.8 13.6 21.1 14.1 20.6 15 20 15.8 20 16.5 20.3 16.9 20.8 17 21.5 17 22 17.1 23.1 17.1 26.8 17 27.9 16.8 29.3 16.5 30.6 16.1 32 15.6 32.8 15 33.9 14.3 34.6 13.3 34.9"/>
      <polygon class="cls-1" points="8.3 29.6 7.1 29.2 6.9 28.2 6.9 27.3 7.1 26.5 7.7 25.9 9 25.3 14.1 25.3 14.1 26.4 9.2 26.4 8.3 26.8 8.1 27 8 27.4 8 28.1 8 28.4 8.3 28.5 8.8 28.4 10.5 28.4 11.4 28.2 12.9 28.2 13.9 28.1 14 29.1 12.9 29.3 11.5 29.3 10.6 29.4 9 29.4 8.3 29.6"/>
      <polygon class="cls-1" points="16.8 34.5 14.5 34.5 14.5 33.7 16.7 33.7 17.3 33.5 17.7 33 18.4 31.3 18.8 29.5 19 28 19.2 26.6 19.3 25 19.3 23.9 19.1 22.8 18.8 21.7 18.7 21 18.6 20.7 18.4 20.6 18.1 20.6 17.1 20.7 15.9 20.9 15.8 20 17 19.9 18.1 19.8 18.6 19.8 19.2 20.2 19.5 20.7 19.6 21.5 19.9 22.6 20.1 23.9 20.1 25 20 26.7 19.9 28.1 19.6 29.6 19.2 31.6 18.4 33.4 17.8 34.3 16.8 34.5"/>
      <polygon class="cls-1" points="30.6 29 19.5 29 19.5 28.2 30.6 28.2 33.1 28 35.7 28 37 27.8 37.5 27.8 37.5 28.6 37.1 28.6 35.8 28.9 33.1 28.9 30.6 29"/>
      <polygon class="cls-1" points="29.2 26.6 25.3 26.6 22.2 26.5 20.3 26.4 19.6 26.4 19.7 25.5 20.4 25.6 22.2 25.7 25.3 25.8 29.1 25.8 30.2 25.6 31.7 25.6 33.2 25.3 34.6 25.3 35.9 25.1 37.7 24.8 37.9 25.6 36 26 34.7 26.1 33.3 26.1 31.7 26.4 30.3 26.4 29.2 26.6"/>
      <polygon class="cls-1" points="36.3 34.3 35.1 33.7 34.4 32.7 33.9 31.7 33.7 30.8 33.5 29.6 33.3 28.9 34.2 28.7 34.3 29.5 34.5 30.6 34.7 31.4 35.2 32.3 35.7 33 36.4 33.3 37.2 33.3 37.8 32.9 38.6 32.5 39.1 31.7 39.7 30.5 39.9 29.6 40.1 28.5 40.1 24.9 39.9 23.8 39.8 22.8 39.4 21.9 39 21.3 38.7 20.8 38.3 20.4 37.8 20.1 37.4 19.7 36.8 19.6 36.1 19.7 35.7 20.1 35.2 20.6 34.9 21.3 34.5 22.4 34.1 23.6 34 24.4 34 25.4 33.1 25.4 33.1 24.4 33.3 23.4 33.7 22.1 34.2 21 34.5 20.2 35.1 19.6 35.6 19 36.8 18.7 37.7 19 38.3 19.4 38.8 19.8 39.4 20.2 39.7 20.9 40.1 21.5 40.6 22.6 40.8 23.6 40.9 24.8 40.9 28.6 40.8 29.8 40.5 30.8 39.8 32.1 39.2 33.1 38.2 33.7 37.4 34.1 36.3 34.3"/>
      <polygon class="cls-1" points="39.2 34 38.3 34 37.9 33.8 37.8 33.6 38.3 33.2 38.4 33.1 38.4 33.1 38.4 33.1 38.5 33.1 38.5 33.2 39.1 33.2 40.2 33 40.5 32.6 41.2 31.4 41.7 30 42.2 28 42.2 26.2 42 24.9 41.8 23.4 41.6 22 41 20.7 40 19.8 37.5 19.8 37.5 18.9 40.3 18.9 41.7 20.2 42.4 21.8 42.6 23.2 42.8 24.8 43 26.1 43 28.1 42.5 30.3 41.9 31.8 41.2 33 40.7 33.7 39.2 34"/>
      <polygon class="cls-1" points="45.5 27.7 43.2 27.7 43.2 26.9 45.1 26.9 45.1 26.8 45.2 26.1 45.2 25.4 45 25.2 43.1 25.2 43.1 24.4 45.2 24.4 46.1 25 46.1 26.2 45.9 27.1 45.5 27.7"/>
    </g>
  </g>
</svg>