<?xml version="1.0" encoding="UTF-8"?>
<svg id="Layer_1" xmlns="http://www.w3.org/2000/svg" version="1.1" viewBox="0 0 54 54">
  <!-- Generator: Adobe Illustrator 29.1.0, SVG Export Plug-In . SVG Version: 2.1.0 Build 142)  -->
  <defs>
    <style>
      .st0 {
        stroke-miterlimit: 10;
        stroke-width: 1px;
      }

      .st0, .st1, .st2, .st3, .st4 {
        stroke: #1174b9;
      }

      .st0, .st1, .st3 {
        fill: #1174b9;
      }

      .st1 {
        stroke-miterlimit: 10;
        stroke-width: 1px;
      }

      .st2 {
        fill: #fffdee;
        stroke-width: 4px;
      }

      .st2, .st3, .st4 {
        stroke-miterlimit: 10;
      }

      .st4 {
        fill: #00c22d;
      }
    </style>
  </defs>
  <rect class="st2" x="2" y="2" width="50" height="50" rx="10" ry="10"/>
  <g>
    <polygon class="st4" points="29.9 40.1 29.1 40.1 29.1 39.6 29.8 39.6 31 39.5 32.7 39.1 34.2 38.8 35.7 38.5 37.1 38.2 37.9 37.8 38.3 37.2 38.4 36.9 38.3 36.6 37.8 36.2 37.1 35.8 36.2 35.5 34.9 35 33.9 34.7 32.9 34.5 30.7 34.5 29.2 34.6 27.7 34.6 26.6 34.7 25 34.8 23.1 35.1 22.3 35.2 20.3 35.6 18.7 36 17.8 36.4 16.8 36.7 16.2 37 15.7 37.4 15.7 37.5 15.7 37.8 16.2 38.3 16.6 38.7 16.9 38.9 17.7 39.1 18.8 39.2 20.1 39.3 21.1 39.4 23.1 39.4 23.4 39.5 23.4 39.9 23 39.9 21.1 39.9 20 39.8 18.8 39.7 17.6 39.6 16.7 39.3 16.3 39 15.9 38.7 15.3 38 15.1 37.5 15.3 37 16 36.6 16.6 36.3 17.7 35.9 18.6 35.6 20.2 35.1 22.2 34.8 23 34.6 23 34.6 24.9 34.4 26.5 34.2 27.7 34.1 29.2 34.1 30.7 34 33 34 34 34.2 35 34.6 36.3 35.1 37.3 35.4 38.1 35.8 38.7 36.4 38.9 36.9 38.7 37.4 38.2 38.2 37.2 38.6 35.8 39 34.3 39.3 32.8 39.6 31.1 39.9 29.9 40.1"/>
    <path class="st3" d="M25.8,41.6l-1-.3-.7-.4-.7-.6-.3-.6v-.7l.2-.8.5-.9.7-.9.8-.6,1.1-.2,1.1.3.8.6.6.5.5.7v.7l-.2,1.1-.7.9-.8.6-.6.3h-1.2v.3h0ZM25,40.9l.8.2h1l.5-.4.7-.6.6-.8.2-.9v-.6l-.3-.5-.5-.5-.8-.5-.9-.3-.8.2-.7.5-.6.8-.4.8v.7c-.1,0-.1.5-.1.5l.2.5.5.5.6.3h0Z"/>
    <rect class="st0" x="26.1" y="34.6" width=".5" height="1.4" transform="translate(-2.3 1.8) rotate(-3.8)"/>
    <polygon class="st3" points="15.7 37.4 15.3 37.1 15.9 36.3 16.8 35.3 17.6 34.2 18.4 33.1 18.9 32 19.4 31 19.9 29.8 20.3 28.5 20.6 27.4 20.9 26 21.2 24.6 21.4 23.1 21.5 21.6 21.8 20.1 22.1 18.6 22.5 17.7 23.2 17.3 24.2 16.5 25.2 16.1 26.2 15.9 27.2 15.5 28.4 15.4 29.9 15.4 30.9 15.7 31.9 16.2 32.7 16.7 33.4 17.2 34 17.7 34.5 18.4 34.8 19.4 35.2 20.4 35.5 22 35.5 23.6 35.4 24.6 35.4 25.9 35.4 27 35.4 27 35.3 28.2 35.5 29.4 35.6 30.4 35.6 31.6 35.9 32.5 36.3 33.4 37 34.3 37.6 35.1 38.1 35.8 37.8 36.1 37.2 35.4 36.6 34.6 36.6 34.6 35.8 33.6 35.4 32.7 35.1 31.7 35.1 30.4 35 29.5 34.8 28.2 34.9 27 34.9 25.9 34.9 25.9 34.9 24.6 35 23.6 35 22 34.8 20.6 34.4 19.5 34.1 18.7 33.6 18 33.1 17.6 32.4 17.1 31.6 16.6 30.7 16.2 29.8 15.8 28.4 15.8 27.3 16 26.3 16.4 25.3 16.6 24.4 16.9 23.4 17.7 22.9 18 22.6 18.7 22.3 20.2 22 21.6 21.9 23.1 21.7 24.7 21.4 26.1 21.1 27.5 20.8 28.6 20.4 30 19.8 31.2 19.3 32.2 18.8 33.4 18 34.5 17.1 35.6 16.3 36.6 15.7 37.4"/>
    <polygon class="st3" points="26.6 16 25.8 15.4 25.5 14.7 25.5 13.7 26.2 13.1 27 12.7 28 12.4 29 12.4 29.9 12.5 30.6 13 31.1 13.8 31.2 14.8 30.7 15.3 30.2 15.6 30 15.8 29.7 15.4 30 15.2 30.4 15 30.7 14.6 30.7 14 30.2 13.3 29.7 13 28.9 12.8 28.1 12.8 27.2 13.1 26.5 13.5 26 13.9 26 14.6 26.2 15.1 26.9 15.6 26.6 16"/>
    <polygon class="st3" points="27.1 15.7 27 15.4 27 14.9 27.3 14.3 27.7 13.8 28.2 13.6 28.9 13.6 29.3 14.1 29.2 14.9 29.1 15.6 28.7 15.6 28.7 14.8 28.8 14.2 28.7 14 28.3 14 28 14.2 27.7 14.5 27.5 15 27.5 15.3 27.6 15.5 27.1 15.7"/>
    <rect class="st1" x="28.7" y="39.6" width=".4" height=".5" transform="translate(-2.8 2.2) rotate(-4.2)"/>
  </g>
</svg>