<?xml version="1.0" encoding="UTF-8"?>
<svg xmlns="http://www.w3.org/2000/svg" version="1.1" viewBox="0 0 50 50">
  <defs>
    <style>
      .cls-1 {
        fill: #1174b9;
      }

      .cls-2 {
        fill: none;
        stroke: #1174b9;
        stroke-miterlimit: 10;
        stroke-width: 3px;
      }

      .cls-3 {
        fill: #fffdee;
      }
    </style>
  </defs>
  <!-- Generator: Adobe Illustrator 28.7.4, SVG Export Plug-In . SVG Version: 1.2.0 Build 166)  -->
  <g>
    <g id="Layer_1">
      <g>
        <rect class="cls-3" x="1.5" y="1.5" width="47" height="47" rx="8.5" ry="8.5"/>
        <path class="cls-1" d="M40,3c3.9,0,7,3.1,7,7v30c0,3.9-3.1,7-7,7H10c-3.9,0-7-3.1-7-7V10c0-3.9,3.1-7,7-7h30M40,0H10C4.5,0,0,4.5,0,10v30c0,5.5,4.5,10,10,10h30c5.5,0,10-4.5,10-10V10c0-5.5-4.5-10-10-10h0Z"/>
      </g>
      <polygon class="cls-2" points="10.7 47.6 10.5 47 10.5 46.4 10.4 45.7 10.4 44.8 10.4 43.9 10.3 43 10.3 42.1 10.3 41.4 10.4 40.6 10.5 39.7 10.7 38.6 10.7 37.6 10.8 36.6 10.8 35.7 10.9 34.5 11 33.5 11 32.3 11 31.1 11 29.9 11 29 11 28.1 11 27.2 10.7 26.4 10.8 25.6 10.9 25.3 11.1 25.1 12.3 25.3 13.3 25.3 14.7 25.3 15.8 25.3 17 25.3 18.3 25.3 19.6 25.3 20.9 25.3 22.1 25.1 23.2 25.1 24.3 25.1 25.8 25.1 27.3 25.1 28.7 25.3 30 25.3 31.3 25.3 32.5 25.4 33.5 25.4 34.7 25.4 36.1 25.5 37.2 25.5 38.7 25.6 39.4 25.7 39.8 26.3 39.9 27.4 39.9 28.3 39.9 29.8 39.9 30.5 39.9 31.8 39.8 32.8 39.7 33.7 39.7 34.6 39.5 35.9 39.6 37.4 39.6 39 39.5 40.2 39.5 41.3 39.5 42.8 39.5 44.7 39.5 46.1 39.5 47.2 38.4 47.3 36.5 47.3 33.7 47.5 31.4 47.4 29.6 47.5 27.2 47.5 24.2 47.4 22.1 47.4 18.2 47.5 16.4 47.5 14.6 47.4 11.4 47.6 10.7 47.6"/>
      <path class="cls-2" d="M21,47v-1.1l.2-2.2v-3.2l.2-1.5.2-2,.2-1.6v-2.7q.1,0,.1,0c0-.4.3-.7.6-.7h1.1c0,0,1.8,0,1.8,0h1.7c0-.1,1.1-.1,1.1-.1h.9c0,.1.9.2.9.2h0c.3,0,.5.2.5.5v3c0,0,0,1.7,0,1.7v8c-.1,0-.1,1.3-.1,1.3v.8"/>
      <path class="cls-2" d="M11.3,25l.9-.7,1.3-1.2,1.3-1.1,1.1-1,1-1,.8-.9,1-.8,1.2-1,.7-.6c.2-.2.5-.3.8-.3h5.3c0-.1,2.3-.3,2.3-.3h.6c.3,0,.7.1,1,.3l1.3,1.1,1.9,1.9,1.3,1.3,1,1.1,1.2,1.4,1.5,1.5.4.7"/>
      <path class="cls-2" d="M24.2,16.3l-.2-1.4-.2-1.5v-.5c-.1-.4.1-.8.5-.9h.4c0,0,1.1,0,1.1,0h1s.7,1,.7,1l.2,1.2v1c.1,0,.1.7.1.7"/>
    </g>
  </g>
</svg>