<?xml version="1.0" encoding="UTF-8"?>
<svg xmlns="http://www.w3.org/2000/svg" version="1.1" viewBox="0 0 53 53">
  <defs>
    <style>
      .cls-1 {
        fill: #00c22d;
      }

      .cls-1, .cls-2, .cls-3, .cls-4 {
        stroke-width: 2px;
      }

      .cls-1, .cls-2, .cls-3, .cls-4, .cls-5 {
        stroke: #1174b9;
      }

      .cls-1, .cls-2, .cls-5 {
        stroke-miterlimit: 10;
      }

      .cls-2, .cls-3, .cls-4 {
        fill: #1174b9;
      }

      .cls-3 {
        stroke-miterlimit: 10;
      }

      .cls-4 {
        stroke-miterlimit: 10;
      }

      .cls-5 {
        fill: #fffdee;
        stroke-width: 3px;
      }
    </style>
  </defs>
  <!-- Generator: Adobe Illustrator 28.7.4, SVG Export Plug-In . SVG Version: 1.2.0 Build 166)  -->
  <g>
    <g id="Layer_1">
      <rect class="cls-5" x="1.5" y="1.5" width="50" height="50" rx="10" ry="10"/>
      <g>
        <polygon class="cls-1" points="29.4 39.6 28.6 39.6 28.6 39.1 29.3 39.1 30.5 39 32.2 38.6 33.7 38.3 35.2 38 36.6 37.7 37.4 37.3 37.8 36.7 37.9 36.4 37.8 36.1 37.3 35.7 36.6 35.3 35.7 35 34.4 34.5 33.4 34.2 32.4 34 30.2 34 28.7 34.1 27.2 34.1 26.1 34.2 24.5 34.3 22.6 34.6 21.8 34.7 19.8 35.1 18.2 35.5 17.3 35.9 16.3 36.2 15.7 36.5 15.2 36.9 15.2 37 15.2 37.3 15.7 37.8 16.1 38.2 16.4 38.4 17.2 38.6 18.3 38.7 19.6 38.8 20.6 38.9 22.6 38.9 22.9 39 22.9 39.4 22.5 39.4 20.6 39.4 19.5 39.3 18.3 39.2 17.1 39.1 16.2 38.8 15.8 38.5 15.4 38.2 14.8 37.5 14.6 37 14.8 36.5 15.5 36.1 16.1 35.8 17.2 35.4 18.1 35.1 19.7 34.6 21.7 34.3 22.5 34.1 22.5 34.1 24.4 33.9 26 33.7 27.2 33.6 28.7 33.6 30.2 33.5 32.5 33.5 33.5 33.7 34.5 34.1 35.8 34.6 36.8 34.9 37.6 35.3 38.2 35.9 38.4 36.4 38.2 36.9 37.7 37.7 36.7 38.1 35.3 38.5 33.8 38.8 32.3 39.1 30.6 39.4 29.4 39.6"/>
        <path class="cls-2" d="M25.3,41.1l-1-.3-.7-.4-.7-.6-.3-.6v-.7l.2-.8.5-.9.7-.9.8-.6,1.1-.2,1.1.3.8.6.6.5.5.7v.7l-.2,1.1-.7.9-.8.6-.6.3h-1.2v.3h0ZM24.5,40.4l.8.2h1l.5-.4.7-.6.6-.8.2-.9v-.6l-.3-.5-.5-.5-.8-.5-.9-.3-.8.2-.7.5-.6.8-.4.8v.7c-.1,0-.1.5-.1.5l.2.5.5.5.6.3h0Z"/>
        <rect class="cls-4" x="25.6" y="34.1" width=".5" height="1.4" transform="translate(-2.2 1.8) rotate(-3.8)"/>
        <polygon class="cls-2" points="15.2 36.9 14.8 36.6 15.4 35.8 16.3 34.8 17.1 33.7 17.9 32.6 18.4 31.5 18.9 30.5 19.4 29.3 19.8 28 20.1 26.9 20.4 25.5 20.7 24.1 20.9 22.6 21 21.1 21.3 19.6 21.6 18.1 22 17.2 22.7 16.8 23.7 16 24.7 15.6 25.7 15.4 26.7 15 27.9 14.9 29.4 14.9 30.4 15.2 31.4 15.7 32.2 16.2 32.9 16.7 33.5 17.2 34 17.9 34.3 18.9 34.7 19.9 35 21.5 35 23.1 34.9 24.1 34.9 25.4 34.9 26.5 34.9 26.5 34.8 27.7 35 28.9 35.1 29.9 35.1 31.1 35.4 32 35.8 32.9 36.5 33.8 37.1 34.6 37.6 35.3 37.3 35.6 36.7 34.9 36.1 34.1 36.1 34.1 35.3 33.1 34.9 32.2 34.6 31.2 34.6 29.9 34.5 29 34.3 27.7 34.4 26.5 34.4 25.4 34.4 25.4 34.4 24.1 34.5 23.1 34.5 21.5 34.3 20.1 33.9 19 33.6 18.2 33.1 17.5 32.6 17.1 31.9 16.6 31.1 16.1 30.2 15.7 29.3 15.3 27.9 15.3 26.8 15.5 25.8 15.9 24.8 16.1 23.9 16.4 22.9 17.2 22.4 17.5 22.1 18.2 21.8 19.7 21.5 21.1 21.4 22.6 21.2 24.2 20.9 25.6 20.6 27 20.3 28.1 19.9 29.5 19.3 30.7 18.8 31.7 18.3 32.9 17.5 34 16.6 35.1 15.8 36.1 15.2 36.9"/>
        <polygon class="cls-2" points="26.4 15.1 25.3 14.9 25 14.2 25 13.2 25.7 12.6 26.5 12.2 27.5 11.9 28.5 11.9 29.4 12 30.1 12.5 30.6 13.3 30.7 14.3 30.2 14.8 29.7 15.1 29.5 14.7 29.2 14.9 29.5 14.7 29.9 14.5 30.2 14.1 30.2 13.5 29.7 12.8 29.2 12.5 28.4 12.3 27.6 12.3 26.7 12.6 26 13 25.5 13.4 25.5 14.1 25.7 14.6 26.4 15.1 26.4 15.1"/>
        <polygon class="cls-2" points="26.6 15.2 26.5 14.9 26.5 14.4 26.8 13.8 27.2 13.3 27.7 13.1 28.4 13.1 28.8 13.6 28.7 14.4 28.6 15.1 28.2 15.1 28.2 14.3 28.3 13.7 28.2 13.5 27.8 13.5 27.5 13.7 27.2 14 27 14.5 27 14.8 27.1 15 26.6 15.2"/>
        <rect class="cls-3" x="28.2" y="39.1" width=".4" height=".5" transform="translate(-2.8 2.2) rotate(-4.2)"/>
      </g>
    </g>
  </g>
</svg>