<?xml version="1.0" encoding="UTF-8"?>
<svg id="Layer_1" xmlns="http://www.w3.org/2000/svg" version="1.1" viewBox="0 0 52.5 52.5">
  <!-- Generator: Adobe Illustrator 29.1.0, SVG Export Plug-In . SVG Version: 2.1.0 Build 142)  -->
  <defs>
    <style>
      .st0 {
        fill: none;
        stroke-width: 3px;
      }

      .st0, .st1 {
        stroke: #1174b9;
        stroke-miterlimit: 10;
      }

      .st1 {
        fill: #1174b9;
      }

      .st2 {
        fill: #fffdee;
      }
    </style>
  </defs>
  <rect class="st2" x="3" y="3" width="47" height="47" rx="8.5" ry="8.5"/>
  <path class="st1" d="M28.3,37.7h-.9l-.3-.5-.3-.8-.4-.9v-.9c-.1,0-.2-1.5-.2-1.5v-1.1l.3-1.4.2-1.4.3-1.8v-2.2l-.2-1v-.8c-.1,0-.2-1.5-.2-1.5h1.2c0-.1.8-.5.8-.5l.9-.3.6-.6.4-.5.4-.7.3-.9v-1.8l-.2-.9-.2-.5-.2-.6-.5-.8-.3-.6-.6-.4-.5-.4-.9-.3-.7-.2h-.6l-.5.2-.6.3-.5.5-.5.5-.2.7v1c-.1,0,0,.9,0,.9l.2,1.1.3,1.2.2,1.5h-1.2c0-.1-.8,0-.8,0h-.8c0,.1-.9.4-.9.4l-.7.3-.7.4-1,.5-.4-1.5-.4-.5-.3-.5-.4-.8-.8-1.5v-1.8l.2-1,.4-1.1.5-.8.6-.9.7-.7.7-.7.8-.5,1.1-.6,1.6-.7,1.1-.3,1.2-.3h3.7l1.6.2,1,.3.8.3,1.4,1.2.7.9.8,1.3.5.8.4,1.4.2,1.2v3.7l-.6,1.4-.6,1-.5.8-.4.5-.9.8-1,.6-.8.4-.2.3-.3.5v2.3l.2,1.2v1.2l.2.9.4,1.7.3,1.6.4.9v1l-.6.3-.4.3-1.4.7-1.4.5-.6.2h0ZM27.8,36.9h.8l1.3-.6,1.3-.6.4-.3h.2v-.5l-.4-.9-.3-1.7-.4-1.7v-1l-.2-1.2-.2-1.2h0v-2.6l.4-.7.4-.5.9-.5.9-.5.8-.7.4-.4.5-.8.6-.9.4-1.2v-3.5l-.2-1.1-.3-1.3-.4-.7-.8-1.2-.6-.8-1.2-1.1-.6-.3-.9-.3h-5l-1.2.3-1,.3-1.5.6-1,.5-.7.5-.7.6-.6.6-.5.8-.4.7-.4,1-.2.8v1.5l.7,1.3.3.7.3.5.4.6.2.7h.2l.8-.5.8-.3,1-.3.9-.2h1.2v-.4l-.4-1.2-.2-1.2-.2-1,.2-1.2.2-.9.6-.7.6-.6.8-.4h.6c0-.1.9-.2.9-.2l.9.3,1,.4.5.4.7.5.4.7.5.8.2.7.2.6.2,1.1v2l-.4,1.2-.5.8-.4.6-.8.7-1,.3-.9.4h-.6v1.6c.1,0,.2,1,.2,1v2.3l-.3,1.9-.2,1.4-.2,1.4v3.2c.1,0,.4.8.4.8l.3.7h0l.3.2h0Z"/>
  <path class="st1" d="M30.7,45.7h-.8l-.7-.3-.7-.4-.7-.5-.3-.5-.3-.6v-.7c-.1,0-.1-1-.1-1l.3-.7.5-.8.6-.6.6-.6.7-.4.6-.2h1.3l.6.2.5.3.5.4.4.3.3.5.2.6v2.1l-.2.6-.3.7-.5.6-.8.7-.9.3h-.9s0,0,0,0h0ZM30,44.9h1.4l.7-.2.7-.6.5-.5.3-.6.2-.5v-1.8l-.3-.4-.2-.3-.3-.2-.4-.3-.4-.2h-.5l-.7-.2h-.9l-.6.5-.5.6-.5.5-.4.7-.2.5v1.4l.3.5.2.3.5.4.5.3.6.2h0Z"/>
  <rect class="st0" x="1.5" y="1.5" width="49.5" height="49.5" rx="10" ry="10"/>
</svg>