<?xml version="1.0" encoding="UTF-8"?>
<svg xmlns="http://www.w3.org/2000/svg" version="1.1" viewBox="0 0 53 53">
  <defs>
    <style>
      .cls-1 {
        fill: #1174b9;
      }

      .cls-2 {
        fill: #fffdee;
      }
    </style>
  </defs>
  <!-- Generator: Adobe Illustrator 28.7.4, SVG Export Plug-In . SVG Version: 1.2.0 Build 166)  -->
  <g>
    <g id="Layer_1">
      <g>
        <g>
          <rect class="cls-2" x="1.5" y="1.5" width="50" height="50" rx="8.2" ry="8.2"/>
          <path class="cls-1" d="M43.3,53H9.7c-5.3,0-9.7-4.3-9.7-9.7V9.7C0,4.3,4.3,0,9.7,0h33.7c5.3,0,9.7,4.3,9.7,9.7v33.7c0,5.3-4.3,9.7-9.7,9.7ZM9.7,3c-3.7,0-6.7,3-6.7,6.7v33.7c0,3.7,3,6.7,6.7,6.7h33.7c3.7,0,6.7-3,6.7-6.7V9.7c0-3.7-3-6.7-6.7-6.7H9.7Z"/>
        </g>
        <g>
          <path class="cls-1" d="M42.9,26.4l-1.5-.2h-8.7c0-.1-1.5-.2-1.5-.2h-9.7c0-.1-1.6,0-1.6,0h-9.5c0-.1-.5-.3-.5-.3l-.6-.5-.5-.8v-2.2l.2-.6.3-.5.2-.4.3-.5.4-.5.2-.4.5-.2h.7c0-.1,2.4-.1,2.4-.1h1.1c0-.1,1.4-.1,1.4-.1h6.4c0,.1.5,0,.5,0h1.3c0,.1,1.6.2,1.6.2h7.9l1.6-.2h.8c0,.1,1.5,0,1.5,0h2.6c0,.1,1.6.1,1.6.1h1.1l.8.2.4.5.2.6v2.9l-.2.8v.8l-.3.7-.4.5-.6.5h-.4,0ZM34.1,25.5h7.4l1.1.2.3-.2.3-.3.2-.6v-.8l.2-.8v-2.7l-.3-.5-.2-.2h-.5c0-.1-.9-.1-.9-.1h-6.6c0-.1-1.5,0-1.5,0h-10.7c0-.1-.6,0-.6,0h-.8c0-.1-1.7-.1-1.7-.1h-6.2c0,.1-2.4.1-2.4.1h-.5l-.2.2v.2c-.1,0-.5.5-.5.5l-.2.5-.2.4-.2.4v2.4l.5.6.4.3h.3l1.2.2h9.8c0-.1,3.3,0,3.3,0h4.9c0-.1,1.6-.1,1.6-.1h2.9c0,.1-.2.4-.2.4Z"/>
          <path class="cls-1" d="M43.7,27.5h-1.8v-.2h-.6c0,0-9.6,0-9.6,0v-.2c-.2,0-.4,0-.6,0h-10.6s0,0,0,0c-.2,0-.4,0-.5,0h-10.6s0-.4,0-.4l-.8-.7-.7-1.2v-2.6l.3-1,.9-1.5.3-.4.3-.6,1-.4h.8c.5-.1,1.3-.1,2.5-.1h1c.4-.1,1-.1,1.5-.1h9.2v.2c.2,0,.5,0,.7,0h7.8s1.7-.2,1.7-.2h1.8c.1,0,.3,0,.4,0h3.7s0,0,0,0c.2,0,.4,0,.6,0h1.3s1.1.3,1.1.3l.7.9.3.9v3.3s-.2.7-.2.7v.9l-.5,1.1-.5.6-.9.7ZM33.4,24.8h0ZM35.3,24.5h6.4s.7.1.7.1v-.2c0,0,0-.9,0-.9l.2-.7v-2.3h-1c0-.1-7.5-.1-7.5-.1-.1,0-.3,0-.4,0h-11.3s-1.9,0-1.9,0h0c-.2,0-.5-.1-.7-.1h-6.1c-.5,0-1.2,0-2.2.1v.4h-.6s-.5,1-.5,1v1.8l.3.3,1.2.2h9.6c.4,0,1.3,0,3.5,0h4.7c.4-.1,1-.1,1.7-.1h3.9v.4Z"/>
        </g>
        <g>
          <polygon class="cls-1" points="39.3 40.8 38.4 40.8 36.4 40.7 31.6 40.7 31.6 40.7 29.1 40.6 27.1 40.6 24.6 40.4 22.3 40.4 22.3 40.4 19.9 40.3 18.1 40.2 15.9 40.4 15.2 40.2 14.6 39.7 14 39.2 13.5 38.2 13.3 36.6 13.2 35.5 13.2 31.7 13.3 30.6 13.3 29.8 13.5 28.6 13.5 27.7 13.6 26.7 13.8 26 14.6 26.2 14.4 26.8 14.3 27.7 14.3 28.7 14.1 29.8 14.1 30.6 14 31.7 14 35.5 14.2 36.6 14.3 38 14.7 38.8 15.2 39.3 15.6 39.6 16 39.7 18 39.6 19.9 39.6 22.3 39.7 24.6 39.7 27.1 40 29.1 40 29.1 40 31.6 40.1 36.4 40.1 36.5 40.1 38.4 40.1 39.2 40.1 39.5 40.1 39.7 39.8 39.8 38.5 40.1 36.6 40.1 31.5 39.9 30.1 40.1 28.8 40.3 27.7 40.2 26.9 40.1 25.9 41 25.8 41.1 26.9 41.2 27.8 40.9 28.9 40.7 30.1 40.9 31.5 40.9 36.7 40.7 38.5 40.5 39.9 40.1 40.6 39.3 40.8"/>
          <polygon class="cls-1" points="39.4 41.8 38.4 41.8 36.4 41.7 31.6 41.7 29.1 41.6 27.1 41.6 24.5 41.4 22.3 41.4 18.1 41.2 15.8 41.4 14.7 41.1 13.2 39.8 12.5 38.5 12.2 35.6 12.2 31.7 12.3 30.5 12.3 29.7 12.5 28.5 12.5 27.7 12.6 26.4 13.1 24.8 15.9 25.5 15.4 27 15.3 27.8 15.3 28.9 15.1 29.9 15.1 30.6 15 31.8 15 35.4 15.2 36.5 15.3 37.7 15.5 38.2 16.1 38.7 17.9 38.6 19.9 38.6 22.3 38.7 24.7 38.7 27.2 39 29.1 39 31.6 39.1 38.8 39.1 38.8 38.4 39.1 36.5 39.1 31.6 38.9 30.1 39.3 27.7 39 25 41.9 24.7 42.2 27.9 41.9 29.1 41.7 30.1 41.9 31.5 41.9 36.8 41.5 40.2 40.8 41.5 39.4 41.8"/>
        </g>
        <g>
          <path class="cls-1" d="M34.2,36.4h-14.5l-.8-.2-.7-.7-.5-.8-.3-1-.2-1.2v-1.2l.3-1,.6-1,.7-.4h16.7c0,.1.5.3.5.3l.4.6.2.7.2,1v.8l-.2,1v1l-.6,1-.6.5-1.2.4h0v.3h0ZM22,35.8h12.1l.9-.3.3-.3.4-.8v-1l.3-1v-.7l-.2-1-.2-.6-.2-.3h-.2l-.7-.2h-15.3l-.3.2-.5.8-.2.9v1.1l.2,1.1.3.9.4.7.5.5h2.4c0,0,0,0,0,0Z"/>
          <path class="cls-1" d="M34.2,36.9h-14.6s-.9-.2-.9-.2l-.9-.9-.6-.9-.3-1-.2-1.3v-1.4s.4-1.2.4-1.2l.7-1.1.9-.5h17.3v.3c0,0,.1,0,.2,0h.1c0,0,.6.9.6.9l.2.7.2,1v.9s-.2,1.1-.2,1.1v1s-.8,1.2-.8,1.2l-.8.6-1.2.4v-.2h-.2v.4ZM22,35.3h12l.7-.2.2-.2.3-.6v-1s.3-.9.3-.9v-.6l-.2-.9-.2-.5-.7-.2h-15.2c0,0-.4.7-.4.7l-.2.8v1l.2,1,.3.8.3.5.3.3h2.2ZM17.7,31.5v1s0-1,0-1ZM17.7,31.4h0c0,0,0-.2,0-.2v.2Z"/>
        </g>
        <g>
          <path class="cls-1" d="M28.4,18.6c-.1,0-.2,0-.3-.1l-1.8-1.4-2-1-3.7-.9c-.2,0-1.4-.4-1.3-.6,0-.2,1.3-.1,1.5-.1l14.6.4c.2,0,.4.1.4.3s0,.3-.2.4l-6.9,3s-.3,0-.3,0ZM23.2,15.2l1.4.4h.1l2,1h0l1.7,1.3,5.6-2.4-10.9-.3h.1ZM26.2,17.1h0Z"/>
          <path class="cls-1" d="M28.8,19.1h-.4c-.1,0-.4,0-.7-.2l-1.8-1.4-1.9-.9-3.6-.9c-.4,0-1.4-.4-1.6-.8v-.2c-.1,0,0-.2,0-.2,0-.1,0-.2.2-.3.2-.2.6-.3,1.7-.2h.2s14.6.4,14.6.4h0c.4,0,.8.3.9.7h0s0,0,0,0c0,0,0,0,0,.1,0,.2,0,.6-.5.8l-7,3.1ZM28.4,18.4v.2s0-.2,0-.2h0ZM26.2,15.8l.7.4,1.5,1.2,3.2-1.4-5.5-.2ZM22,15l1.1.3v-.2s-1.1,0-1.1,0Z"/>
        </g>
        <g>
          <polygon class="cls-1" points="31.4 14.9 30.6 14.9 30.6 14 30.6 13 30.7 12.1 30.8 11.3 30.9 10.5 30.9 9.8 31 9.4 30.7 9.5 29.8 9.5 29.2 9.4 28.5 9.2 27.7 9.2 27.2 9.2 27 9.6 27 10.3 27.2 11.1 27.3 12.1 27.4 13 27.5 13.8 27.3 14.9 26.5 14.8 26.6 13.8 26.6 13 26.4 12.1 26.4 11.2 26.2 10.4 26.2 9.5 26.5 8.6 27.7 8.5 28.6 8.6 29.4 8.7 29.9 8.8 30.7 8.8 32.2 8.7 31.7 9.9 31.7 10.5 31.6 11.4 31.5 12.1 31.5 13 31.4 14 31.4 14.9"/>
          <polygon class="cls-1" points="28.1 16 25.4 15.7 25.6 13.7 25.6 13.1 25.4 12.1 25.4 11.3 25.2 10.4 25.2 9.3 25.8 7.7 27.7 7.5 30 7.8 30.7 7.8 33.7 7.6 32.7 10.1 32.7 10.6 32.5 12.2 32.5 13 32.4 14.1 32.4 15.9 29.6 15.9 29.6 12.9 29.9 10.5 29.6 10.5 28.9 10.4 28.4 10.2 28 10.2 28.2 11 28.5 13.8 28.1 16"/>
        </g>
        <path d="M19.1,33.8h0v-2.9h.1c.1-.2.1-.1.1-.1h0c.5.1.9.4,1.2.8.4.4.5.8.6,1.4,0,.6-.2,1-.7,1.1h-.8v.2h-.3v-.3h-.2v-.2ZM19.4,31.9v1.7h.9c.2,0,.3-.2.3-.3v-.2c0-.4-.1-.8-.3-1.2-.2-.3-.6-.6-1-.8v.8s.1,0,.1,0Z"/>
        <path d="M22.8,30.7c.2,0,.4,0,.6.2.3.3.5.7.5,1.4s-.2,1.1-.5,1.5c-.2.2-.4.3-.6.3-.3,0-.6,0-.7-.3-.2-.2-.3-.5-.4-.7,0-.3-.1-.5-.1-.8s.1-.8.3-1.1c.2-.3.6-.4,1-.4h0ZM22.7,31.1c-.4,0-.7.2-.8.6v.4c0,.1,0,.4.1.6,0,.3.2.5.4.7h.4c.2,0,.3,0,.4-.2s.2-.3.2-.5v-.6c0-.4,0-.7-.2-.9-.1-.2-.3-.3-.5-.3h0v.2Z"/>
        <path d="M25.7,34h-.3v-2.6c0-.3,0-.4.3-.5.2,0,.4-.1.6-.1h.4c.1,0,.3.2.4.3.1.1.2.2.2.4s0,.3-.2.4c-.1.2-.3.3-.5.4s-.4.2-.5.3c.3.2.6.4.8.7.2.2.3.4.3.6s0,0,0,0h-.4c0-.2-.2-.4-.4-.6-.2-.2-.4-.4-.7-.6v1.2h0ZM26.5,32c.3-.2.4-.3.4-.5s0-.3-.2-.3-.3-.1-.5-.1h-.5v1.1c.2,0,.5-.1.8-.3h0Z"/>
        <path d="M27.7,32.3h0v-1.6h1.6c.1,0,.2,0,.2.2s-.1.2-.4.2h-1v.9h1c.1,0,.2,0,.2.2s0,.2-.1.2h-1v1.3h1.4-1.7v-1.7h-.2v.3Z"/>
        <path d="M33.3,30.7s.1,0,.2.2v3.1h-.2c0,0-.1,0-.1-.2v-2.1c-.1.2-.3.4-.5.5s-.4.2-.6.2-.4,0-.6-.3v1.8h-.2c0,0-.1,0-.1-.2v-3c0-.1,0,0,.1,0h.1c0,.5,0,.7.2.9s.2.3.4.3h.4c.1,0,.2-.1.3-.2,0,0,.1-.2.2-.3,0-.2.2-.4.3-.6,0-.1.1-.2.2-.2h0Z"/>
        <path d="M34.3,30.8h.2c0,0,0,0,0,.1v2.9h-.2v-2.9h0Z"/>
      </g>
    </g>
  </g>
</svg>