<?xml version="1.0" encoding="UTF-8"?>
<svg id="Layer_1" xmlns="http://www.w3.org/2000/svg" version="1.1" viewBox="0 0 50 50">
  <!-- Generator: Adobe Illustrator 29.1.0, SVG Export Plug-In . SVG Version: 2.1.0 Build 142)  -->
  <defs>
    <style>
      .st0 {
        fill: #1174b9;
      }

      .st1 {
        stroke: #1174b9;
        stroke-miterlimit: 10;
        stroke-width: 4px;
      }

      .st1, .st2 {
        fill: #fffdee;
      }
    </style>
  </defs>
  <rect class="st2" x="2" y="2" width="46" height="46" rx="8" ry="8"/>
  <path class="st0" d="M40,4c3.3,0,6,2.7,6,6v29.9c0,3.3-2.7,6-6,6H10c-3.3,0-6-2.7-6-6V10c0-3.3,2.7-6,6-6h29.9M40,0H10C4.5,0,0,4.5,0,10v29.9c0,5.5,4.5,10,10,10h29.9c5.5,0,10-4.5,10-10V10c0-5.5-4.5-10-10-10h0Z"/>
  <polyline class="st1" points="17 35 19.4 35 22.5 35 24.5 35 27 35 30 34 32 33 34 31 36 28 36 24.1 36 20.5 35 17 31 16 25.5 16 23 16 21.1 16 18.7 16"/>
  <polygon class="st1" points="18 21 11.5 16 19 11 19.1 16 18 21"/>
</svg>