<?xml version="1.0" encoding="UTF-8"?>
<svg id="Layer_1" xmlns="http://www.w3.org/2000/svg" version="1.1" viewBox="0 0 54 54">
  <!-- Generator: Adobe Illustrator 29.1.0, SVG Export Plug-In . SVG Version: 2.1.0 Build 142)  -->
  <defs>
    <style>
      .st0 {
        fill: #00c22d;
      }

      .st0, .st1 {
        stroke: #00c22d;
        stroke-miterlimit: 10;
      }

      .st2 {
        fill: #fffdee;
      }

      .st1 {
        fill: none;
        stroke-width: 4px;
      }
    </style>
  </defs>
  <rect class="st2" x="3.5" y="3.5" width="47" height="47" rx="8.5" ry="8.5"/>
  <polygon class="st0" points="15 51 14.2 51 14.2 49.7 14.1 49 14 48.4 14 42.4 14 42.1 10.9 42.1 10.3 42.2 9.9 42.3 9.5 42.5 9.3 42.6 9.2 42.8 9 43.1 9 43.2 9 45.4 8.9 46.1 8.9 48.8 8.8 49.7 8.8 51 8 51 8 49.7 8.1 48.8 8.1 46.1 8.2 45.4 8.2 43 8.3 42.7 8.5 42.5 8.7 42.1 9.1 41.8 9.6 41.6 10.1 41.5 10.8 41.4 14.4 41.4 14.7 41.8 14.8 42.3 14.8 48.4 14.9 49 15 49.7 15 51"/>
  <polygon class="st0" points="25.4 51 24.6 51 24.6 49.8 24.5 47.8 24.5 42.3 24.4 41.5 24.4 40.8 24.3 40.1 24.3 38.5 24.2 37.5 24.2 35 24.1 34.7 24.1 34.5 21.9 34.5 20.7 34.5 19.7 34.6 18.9 34.8 18.3 35 17.8 35.2 17.6 35.3 17.5 35.3 17.5 35.4 17.5 35.7 17.5 36.4 17.5 37.3 17.7 38.3 17.7 40.8 17.6 41.9 17.6 43.9 17.5 44.8 17.5 48.1 17.5 48.9 17.5 49.6 17.4 50.3 17.4 51 16.6 51 16.6 50.3 16.7 49.5 16.7 48.9 16.7 48.1 16.7 44.8 16.8 43.9 16.8 41.9 16.9 40.8 16.9 38.3 16.7 37.4 16.7 36.5 16.7 35.7 16.7 35.3 16.7 34.9 17.2 34.6 17.5 34.5 18 34.3 18.7 34 19.6 33.9 20.7 33.8 21.9 33.7 24.5 33.7 24.9 34.1 24.9 34.6 25 35 25 37.5 25.1 38.5 25.1 40 25.2 40.8 25.2 41.5 25.3 42.3 25.3 47.8 25.4 49.7 25.4 51"/>
  <polygon class="st0" points="28.3 50.9 27.5 50.9 27.6 49.6 27.6 45.2 27.7 43.3 27.7 39.3 27.6 37.9 27.5 36.7 27.3 34.6 27.3 33.2 27.1 32.1 27 30.6 26.9 29.3 26.7 27.2 26.7 24.9 26.9 24.4 27.4 24 28.2 23.9 29.3 23.7 34.3 23.7 34.7 24.1 34.7 26.1 34.6 26.9 34.5 27.8 34.5 28.8 34.5 29.8 34.4 30.9 34.5 31.8 34.5 33.2 34.5 34.3 34.5 36.2 34.6 36.9 34.6 37.9 34.7 38.4 34.7 39.4 34.7 41.3 34.7 48 34.9 49.9 34.9 50.8 34.1 50.8 34.1 49.9 33.9 48 33.9 41.3 33.9 39.4 33.9 38.4 33.8 37.9 33.8 37 33.7 36.3 33.7 34.3 33.7 34.3 33.7 33.2 33.7 31.9 33.6 30.9 33.7 29.8 33.7 28.8 33.7 27.8 33.8 26.8 33.9 26 33.9 24.4 29.4 24.4 28.3 24.6 27.8 24.7 27.6 24.8 27.5 25 27.5 27.1 27.7 29.2 27.8 30.5 27.9 32 28.1 33.1 28.1 34.6 28.3 36.6 28.4 37.8 28.5 39.2 28.5 43.3 28.4 45.2 28.4 49.6 28.3 50.9"/>
  <polygon class="st0" points="38.5 50.9 37.7 50.8 37.8 49.7 37.7 48 37.9 46.1 37.9 43.4 37.7 42 37.6 39.4 37.4 38.5 37.4 36.1 37.6 34.3 37.5 32.4 37.4 30.8 37.7 28.6 37.7 24.9 37.9 23 37.9 21 37.8 19.2 37.9 18.6 38.6 18.3 39 18.1 39.8 18.1 40.6 18.2 41.6 18.3 42.6 18.3 43.2 18.2 43.9 18.2 44.4 18.1 45 18.3 45 19.4 44.8 21 44.7 22.6 44.6 23.9 44.5 25.3 44.5 27.6 44.5 27.6 44.5 28.9 44.5 31.5 44.4 33.4 44.4 34.7 44.3 37.3 44.3 38.4 44.4 40.6 44.4 42.6 44.4 42.6 44.4 44.7 44.5 46.9 44.5 49.3 44.5 50.9 43.7 50.9 43.7 49.3 43.7 46.9 43.6 44.7 43.6 42.6 43.6 40.6 43.5 38.4 43.5 37.3 43.6 34.6 43.6 33.4 43.7 31.5 43.7 28.9 43.7 27.6 43.7 25.2 43.8 23.8 43.9 22.6 44.1 21 44.2 19.4 44.2 18.9 43.9 18.9 43.3 18.9 42.6 19 41.6 19 40.5 18.9 39.7 18.8 39.2 18.8 38.9 19 38.7 19.1 38.6 19.2 38.7 21 38.7 23 38.5 24.9 38.5 28.6 38.2 30.8 38.3 32.4 38.4 34.4 38.2 36.1 38.2 38.4 38.4 39.4 38.4 39.4 38.5 41.9 38.7 43.3 38.7 46.2 38.5 48 38.6 49.8 38.5 50.9"/>
  <rect class="st1" x="2" y="2" width="50" height="50" rx="10.2" ry="10.2"/>
</svg>