<?xml version="1.0" encoding="UTF-8"?><svg id="Layer_1" xmlns="http://www.w3.org/2000/svg" viewBox="0 0 50 50"><defs><style>.cls-1{stroke:#00c22d;stroke-miterlimit:10;stroke-width:4px;}.cls-1,.cls-2{fill:#fffdee;}.cls-3{fill:#00c22d;}</style></defs><rect class="cls-2" x="2" y="2" width="46" height="46" rx="8.0449" ry="8.0449"/><path class="cls-3" d="M39.955,4c3.3332,0,6.045,2.7118,6.045,6.045v29.91c0,3.3332-2.7118,6.045-6.045,6.045H10.045c-3.3332,0-6.045-2.7118-6.045-6.045V10.045c0-3.3332,2.7118-6.045,6.045-6.045h29.91M39.955,0H10.045C4.4973,0,0,4.4973,0,10.045v29.91c0,5.5477,4.4973,10.045,10.045,10.045h29.91c5.5477,0,10.045-4.4973,10.045-10.045V10.045c0-5.5477-4.4973-10.045-10.045-10.045h0Z"/><polyline class="cls-1" points="17 35 19.3821 35 22.5294 35 24.5321 35 27 35 30 34 32 33 34 31 36 28 36 24.1103 36 20.5339 35 17 31 16 25.5335 16 22.9585 16 21.0988 16 18.6669 16"/><polygon class="cls-1" points="18 21 11.5169 16 19 11 19.0988 16 18 21"/></svg>