<?xml version="1.0" encoding="UTF-8"?>
<svg id="Layer_1" xmlns="http://www.w3.org/2000/svg" version="1.1" viewBox="0 0 54 54">
  <!-- Generator: Adobe Illustrator 29.1.0, SVG Export Plug-In . SVG Version: 2.1.0 Build 142)  -->
  <defs>
    <style>
      .st0 {
        stroke: #00c22d;
        stroke-miterlimit: 10;
      }

      .st0, .st1 {
        fill: #00c22d;
      }

      .st2 {
        fill: #fffdee;
      }
    </style>
  </defs>
  <g>
    <rect class="st2" x="2" y="2" width="50" height="50" rx="10.1" ry="10.1"/>
    <path class="st1" d="M41.9,54H12.1c-6.7,0-12.1-5.4-12.1-12.1V12.1C0,5.4,5.4,0,12.1,0h29.8c6.7,0,12.1,5.4,12.1,12.1v29.8c0,6.7-5.4,12.1-12.1,12.1ZM12.1,4c-4.5,0-8.1,3.6-8.1,8.1v29.8c0,4.5,3.6,8.1,8.1,8.1h29.8c4.5,0,8.1-3.6,8.1-8.1V12.1c0-4.5-3.6-8.1-8.1-8.1H12.1Z"/>
  </g>
  <g>
    <path class="st0" d="M14.1,32.2h0c-.2,0-.4-.2-.4-.4v-1.4c-.1,0-.4-1.8-.4-1.8h0v-2.4c-.1,0-.3-.9-.3-.9l.8-1.1.9-1.3.8-1.2,1-1.5,1.2-1.6,1.4-1.6,1.4-1.1,1.4-.9,1.5-.8,1.1-.6,1.6-.7,1.3-.4h1.3l1,.2h.3v-2.6l-.2-1.5-.2-2.1,2.2,2.1,1.3.9,1.2,1.1,1.1.9h0l1.5,1.4,1.1,1,.4.3.3.3.4.4.2.4-.2.6-.4.5-.9.8-1.6,1.6-1.2,1.1-1,1.1-.7,1.1-1.1,1.4-.5.5h-.8l-.2-.9v-4.2c-.1,0-.1-1.2-.1-1.2l-1.1-.2-1.4.2-1.1.4-1,.4-1,.5-1.6,1.1-1.2.9-1.2,1-1.1.9-.8.7-1.2,1.3-.8,1-.7.9-.8,1.4-.4,1-.6,1.4-.4,1.2c0,.2-.2.3-.4.3h.3ZM14,28.6l.3,1.8v.3-.2c.1,0,.7-1.4.7-1.4l.4-1,.9-1.5.7-1,.8-1,1.3-1.3.8-.7,1.1-.9,1.2-1,1.3-.9,1.6-1.1,1-.6,1-.4,1.1-.4,1.6-.3,1.6.3v1.7c.1,0,.2,1.6.2,1.6v2.8c.1,0,.3-.2.3-.2l1.1-1.3.7-1.1,1-1.2,1.2-1.1,1.6-1.6.8-.8.3-.4v-.3h0c0-.1-.3-.4-.3-.4l-.3-.3-.4-.3-1.2-1-1.5-1.4-1.1-.9h0l-1.1-1.1-1.3-.9-1-.9v.3l.2,1.5v3.7l-1.1-.3-.9-.2h-1.2l-1.1.4-1.5.7-1.1.6-1.5.8-1.3.9-1.4,1.1-1.4,1.6-1.2,1.5-.9,1.5-.8,1.2-.9,1.3-.7.9v.7c.1,0,.3,2.4.3,2.4v-.2h.1Z"/>
    <path class="st0" d="M24.1,46.3h-.4l-.3-.2-.8-.5h0l-.7-.6-.9-.7h0l-1-1-1.7-1.5h0l-1-1-1-.9h0l-.8-1.1-.6-.7v-.6s0-.2.1-.3l.2-.2h.1l1.1-.5,1.2-.8h0l2-.8,1.7-.7,2-.8.7-.3h.4c.2,0,.4.2.4.4v3.7c.1,0,.4.5.4.5l.5.4.7.3h1.6l.8-.2.9-.6h0l1.4-.8,1.6-1.1,1-1,.9-1.2.9-1.1.6-1.1.6-1.3.4-1,.5-1.3.3-1.4v-1.2l.2-1.3v-.6c0-.2,0-.4.2-.4s.4,0,.5.2v.3l1.3,1.7.8.9,1,1v.3l-.3,1.2-.3,1.5h0l-.8,2.1-.6,1.8h0l-.8,1.8h0l-.8,1.4h0l-1.3,1.9h0l-1.2,1.5h0l-1.3,1.2h0l-1.8.8h0l-1.1.3h-1.2q0,.1,0,0h-1.5v-.2l-1.7-.4h0l-1.2-.5h0l-.7-.4h-.2v4.1c-.1.2-.3.4-.5.4l-.5.5h0ZM23.7,45.5h0v-3.3h0v-.6c.2-.2.3-.3.5-.3h.7l.7.5,1.1.4,1.7.4h2.6l1.1-.3,1.7-.8,1.3-1.1,1.1-1.4,1.2-1.9.8-1.4.8-1.7.6-1.8.8-2.1.3-1.5.2-1.1-.9-.9-.9-.9h0l-.8-1.2v.9l-.2,1.2h0l-.3,1.5h0l-.5,1.3-.4,1-.6,1.3h0l-.6,1.1h0l-.9,1.2-.9,1.2h0l-1,1h0l-1.6,1.2h0l-1.5.8-.9.6h-.1l-.9.3h-1.9l-.8-.4h0l-.6-.5h-.1l-.3-.7v-2h-.1v-1.7l-.6.2-2,.8-1.7.7-1.9.8-1.2.8h0l-1.1.5h0l.6.7h0l.8,1.1,1,.8h0l1,1,1.7,1.5,1,1,.9.7.7.5.8.5h-.4ZM22.9,45h0ZM30.2,42.8h0ZM31.3,42.6h0ZM27.1,42.2h0ZM34.1,41.5h0ZM18.7,41.3h0ZM18.7,41.3h0ZM17.2,40.8h0ZM35.4,40.4h0ZM36.5,38.9h0ZM15.4,38.8h0ZM15.4,38.8h0ZM27.8,38.5h0ZM28.6,38.3h0ZM28.6,38.3h0ZM29.8,38.3h0ZM25.5,38.2h0ZM15.3,37.7h0ZM24.7,37.3h0ZM30.9,36.9h0ZM16.1,36.6h0ZM38.5,35.7h0ZM39.3,33.9h0ZM35.3,32.4h0ZM37.4,27.8h0ZM37.4,27.8h0ZM37.7,26.4h0ZM40,25.1h0ZM39.9,25.1h0Z"/>
  </g>
</svg>