<?xml version="1.0" encoding="UTF-8"?><svg id="Layer_1" xmlns="http://www.w3.org/2000/svg" viewBox="0 0 53 53"><defs><style>.cls-1{fill:#1174b9;}.cls-2{fill:#fffdee;}</style></defs><rect class="cls-2" x="1.5" y="1.5" width="50" height="50" rx="10.0497" ry="10.0497"/><path class="cls-1" d="M41.4502,53H11.5498c-6.3687,0-11.5498-5.1816-11.5498-11.5498V11.5498C0,5.1812,5.1812,0,11.5498,0h29.9004c6.3682,0,11.5498,5.1812,11.5498,11.5498v29.9004c0,6.3682-5.1816,11.5498-11.5498,11.5498ZM11.5498,3C6.8354,3,3,6.8354,3,11.5498v29.9004c0,4.7148,3.8354,8.5498,8.5498,8.5498h29.9004c4.7148,0,8.5498-3.835,8.5498-8.5498V11.5498c0-4.7144-3.835-8.5498-8.5498-8.5498H11.5498Z"/><rect class="cls-2" x="3.5" y="3.5" width="46" height="46" rx="8.0068" ry="8.0068"/><path class="cls-1" d="M14.8687,42.5078h-5.0684l.0132-2.6348,1.3955-6.7744.2402-2.4531-.0039-2.875.0854-1.1992-.002-5.3687-.2271-2.9258-.085-2.1851-.2236-1.7183-.2236-1.2261.3193-2.0308h1.0796l.3999.3198.8774.2607.8286-.04,1.5264-.5923,1.0332-.6548.8008.979v5.7031l-.2812,1.9419-.2515,1.3555-.0947,1.2017-.0186,1.3271-.168,2.4502-.1821,1.3008-.0884,1.3726.063,1.0869-.0415,1.207.0015,1.5986.6279.3564.8281.2178.8931.291.6899.1318.8564.0928,1.0015.0215.6836-.0811.5586-.3037,1.4683-.918,1.127-1.1377,1.2192-1.3516-.0425,10.5684-.3291.9844c-.0854.3623-.3525.6367-.6982.7168-.2031.0479-.4111.0205-.5928-.0693l-.2056-.0107-1.4746.3135-1.3335.0889-1.6982.0264-1.3936.1982-2.5181.1816-1.3721.2559ZM11.1997,41.1094h3.541l1.3179-.2432,2.5605-.1875,1.4268-.1992,1.751-.0312,1.207-.0752,1.5337-.3359.3774.0186.2124-.5938v-6.6865l-.1436.1162-2.4004,1.4326-1.0527.1162-1.1558-.0215-.9766-.1055-.8301-.1621-.9346-.3008-1.0444-.2979-1.0425-.5928-.374-.6582.0425-3.1611-.062-1.1074.0942-1.5078.1821-1.2988.1616-2.3716.019-1.3315.1064-1.3184.4038-2.2505.1206-.9507-.0059-4.605-1.7861.6504-1.1484.0562-1.0605-.3042-.0518.3296.187,1.0283.2344,1.8164.0889,2.2246.2266,2.9404.0029,5.4814-.0854,1.1992.002,2.8965-.2529,2.584-1.3921,6.7734v1.0342Z"/><path class="cls-1" d="M35.2646,42.6104l-.1191-.0098-1.6318-.2598-2.4961-.876-1.1182-.7324.0723-1.0859.1895-.7578.2422-2.5967-.0723-1.1104-.3252-2.1035-.1299-1.248-.0547-1.375-.1943-1.2324-.1914-1.6719-.0967-1.3701-.0273-2.4458-.1025-1.3145.1035-2.105-.0996-1.1733-.1221-2.3428-.2881-1.1289v-1.9771l-.2852-1.9326,1.7861-.7144,1.0859-.3076,2.5859-.5122,2.625.0381.8652.2798,1.4434.5728.9912.5596,1.1064.8213.8174,1.1274.7627,1.9336.7012,1.5874.3096,1.5708-.2822,1.5464-.417,1.7964-.6699,1.3872-.8652,1.1445-.8057.9102-1.9688,1.5732,1.2344.6885,1.2793,1.2109.9668,1.2471.8896,1.2607.8174,1.582.3672,1.2939v1.3076l-.2119,1.6211-.5605,1.2988-.7383.9668-1.2051,1.3047-1.3145,1.2119-1.7432.3477-1.835.1885-1.2705.0049ZM35.3242,41.0322h1.1318l1.6807-.1729,1.2334-.25.9463-.8691,1.1113-1.2021.626-.8252.3779-.9229.1396-1.2139-.0049-1.0957-.2744-.877-.7041-1.3398-.7842-1.1016-.9092-1.1709-1.0732-1.0059-1.0029-.5361-1.249-.5645-1.5664-1.1396,2.4941-.8135,2.0312-1.627.6104-.7046.7822-1.0376.5127-1.0933.5586-2.7402-.2334-1.187-.623-1.3662-.7383-1.8706-.5742-.7573-.7656-.5405-.874-.4893-1.9492-.7144h-2.1748l-2.3096.4692-.9414.2651-.5488.2222.1211.875v1.9258l.2773,1.0454.2285,3.6816-.0977,2.1147.0977,1.2715.0273,2.4346.0918,1.2979.1836,1.606.1992,1.292.0596,1.4131.2734,2.2354.1748,1.0479.0889,1.3105-.2803,2.9033-.1748.7002.2686.1758,2.1504.7324,1.375.209Z"/><path class="cls-1" d="M36.25,37.915l-1.3027-.1865v-1.2041l-.0742-.9707-.002-2.9404.1709-1.5732.2227-.8662.6377-.04,1.0947-.001,1.3027.918.7129,1.0283.2139,1.335-.1787,1.543-.9883,1.5059-.9697.9668-.8398.4854ZM36.207,31.3281l-.1436,1.3486.0029,2.832.0752,1.0879.2783-.1611.7412-.7627.7305-1.1299.1279-1.1035-.1436-.9033-.4932-.71-.7471-.498h-.4287Z"/><path class="cls-1" d="M35.0078,22.6216l-.6182-1.2339-.2949-1.4136v-3.3228l1.792-.5366,1.1846.0435,1.2109.479.5664,1.7925-.334,1.4634-1.2412,1.1919-.8066.9722-1.459.5645ZM35.5889,21.04l.0088.0171.1191-.0459.6465-.7749,1.0186-.9834.1758-.7705-.2852-.9038-.5498-.2178h-.7393l-.6426.2036v2.3423l.248,1.1333Z"/></svg>