<?xml version="1.0" encoding="UTF-8"?>
<svg xmlns="http://www.w3.org/2000/svg" version="1.1" viewBox="0 0 53 53">
  <defs>
    <style>
      .cls-1 {
        fill: #fffdee;
      }

      .cls-1, .cls-2 {
        stroke: #ab08ff;
        stroke-miterlimit: 10;
        stroke-width: 3px;
      }

      .cls-2 {
        fill: none;
      }
    </style>
  </defs>
  <!-- Generator: Adobe Illustrator 28.7.4, SVG Export Plug-In . SVG Version: 1.2.0 Build 166)  -->
  <g>
    <g id="Layer_1">
      <rect class="cls-1" x="1.5" y="1.5" width="50" height="50" rx="10" ry="10"/>
      <polygon class="cls-2" points="12.2 49.1 12 48.5 12 47.9 11.9 47.2 11.9 46.3 11.9 45.4 11.8 44.5 11.8 43.6 11.8 42.9 11.9 42.1 12 41.2 12.2 40.1 12.2 39.1 12.3 38.1 12.3 37.2 12.4 36 12.5 35 12.5 33.8 12.5 32.6 12.5 31.4 12.5 30.5 12.5 29.6 12.5 28.7 12.2 27.9 12.3 27.1 12.4 26.8 12.6 26.6 13.8 26.8 14.8 26.8 16.2 26.8 17.3 26.8 18.5 26.8 19.8 26.8 21.1 26.8 22.4 26.8 23.6 26.6 24.7 26.6 25.8 26.6 27.3 26.6 28.8 26.6 30.2 26.8 31.5 26.8 32.8 26.8 34 26.9 35 26.9 36.2 26.9 37.6 27 38.7 27 40.2 27.1 40.9 27.2 41.3 27.8 41.4 28.9 41.4 29.8 41.4 31.3 41.4 32 41.4 33.3 41.3 34.3 41.2 35.2 41.2 36.1 41 37.4 41.1 38.9 41.1 40.5 41 41.7 41 42.8 41 44.3 41 46.2 41 47.6 41 48.7 39.9 48.8 38 48.8 35.2 49 32.9 48.9 31.1 49 28.7 49 25.7 48.9 23.6 48.9 19.7 49 17.9 49 16.1 48.9 12.9 49.1 12.2 49.1"/>
      <path class="cls-2" d="M22.5,48.5v-1.1l.2-2.2v-3.2l.2-1.5.2-2,.2-1.6v-2.7h.1c0-.4.3-.7.6-.7h4.6c0-.1,1.1-.1,1.1-.1h.9c0,.1.9.2.9.2h0c.3,0,.5.2.5.5v12.7c-.1,0-.1,1.3-.1,1.3v.8"/>
      <path class="cls-2" d="M12.8,26.5l.9-.7,1.3-1.2,1.3-1.1,1.1-1,1-1,.8-.9,1-.8,1.2-1,.7-.6c.2-.2.5-.3.8-.3h5.3c0-.1,2.3-.3,2.3-.3h.6c.3,0,.7.1,1,.3l1.3,1.1,1.9,1.9,1.3,1.3,1,1.1,1.2,1.4,1.5,1.5.4.7"/>
      <path class="cls-2" d="M25.7,17.8l-.2-1.4-.2-1.5v-.5c-.1-.4.1-.8.5-.9h2.5l.7,1,.2,1.2v1c.1,0,.1.7.1.7"/>
    </g>
  </g>
</svg>