<?xml version="1.0" encoding="UTF-8"?>
<svg id="Layer_1" xmlns="http://www.w3.org/2000/svg" version="1.1" viewBox="0 0 50 50">
  <!-- Generator: Adobe Illustrator 29.1.0, SVG Export Plug-In . SVG Version: 2.1.0 Build 142)  -->
  <defs>
    <style>
      .st0, .st1 {
        fill: #ab08ff;
      }

      .st1 {
        stroke: #ab08ff;
        stroke-miterlimit: 10;
      }

      .st2 {
        fill: #fffdee;
      }
    </style>
  </defs>
  <rect class="st2" x="1.5" y="1.5" width="47" height="47" rx="8.5" ry="8.5"/>
  <path class="st0" d="M40,3c3.9,0,7,3.1,7,7v30c0,3.9-3.1,7-7,7H10c-3.9,0-7-3.1-7-7V10c0-3.9,3.1-7,7-7h30M40,0H10C4.5,0,0,4.5,0,10v30c0,5.5,4.5,10,10,10h30c5.5,0,10-4.5,10-10V10c0-5.5-4.5-10-10-10h0Z"/>
  <path class="st1" d="M26.8,36.2h-.9l-.3-.5-.3-.8-.4-.9v-.9c-.1,0-.2-1.5-.2-1.5v-1.1s.3-1.4.3-1.4l.2-1.4.3-1.8v-2.2c0,0-.2-1-.2-1v-.8c-.1,0-.2-1.5-.2-1.5h1.2c0-.1.8-.5.8-.5l.9-.3.6-.6.4-.5.4-.7.3-.9v-1.8l-.2-.9-.2-.5-.2-.6-.5-.8-.3-.6-.6-.4-.5-.4-.9-.3-.7-.2h-.6c0,0-.5.2-.5.2l-.6.3-.5.5-.5.5-.2.7v1c-.1,0,0,.9,0,.9l.2,1.1.3,1.2.2,1.5h-1.2c0-.1-.8,0-.8,0h-.8c0,.1-.9.4-.9.4l-.7.3-.7.4-1,.5-.4-1.5-.4-.5-.3-.5-.4-.8-.8-1.5v-1.8l.2-1,.4-1.1.5-.8.6-.9.7-.7.7-.7.8-.5,1.1-.6,1.6-.7,1.1-.3,1.2-.3h1.5c0,0,2.2,0,2.2,0l1.6.2,1,.3.8.3,1.4,1.2.7.9.8,1.3.5.8.4,1.4.2,1.2v3.7c-.1,0-.6,1.4-.6,1.4l-.6,1-.5.8-.4.5-.9.8-1,.6-.8.4-.2.3-.3.5v.5s0,.8,0,.8v1c0,0,.2,1.2.2,1.2v1.2c0,0,.2.9.2.9l.4,1.7.3,1.6.4.9v1l-.6.3-.4.3-1.4.7-1.4.5-.6.2h0ZM26.3,35.4h.8c0-.1,1.3-.6,1.3-.6l1.3-.6.4-.3h.2v-.5l-.4-.9-.3-1.7-.4-1.7v-1c0,0-.2-1.2-.2-1.2l-.2-1.2h0s0-1.1,0-1.1v-.8c0,0,0-.7,0-.7l.4-.7.4-.5.9-.5.9-.5.8-.7.4-.4.5-.8.6-.9.4-1.2v-.9c0,0,0-2.6,0-2.6l-.2-1.1-.3-1.3-.4-.7-.8-1.2-.6-.8-1.2-1.1-.6-.3-.9-.3h-1.5c0-.1-2.1-.1-2.1-.1h-1.4c0,0-1.2.3-1.2.3l-1,.3-1.5.6-1,.5-.7.5-.7.6-.6.6-.5.8-.4.7-.4,1-.2.8v1.5l.7,1.3.3.7.3.5.4.6.2.7h.2c0,0,.8-.5.8-.5l.8-.3,1-.3.9-.2h1c0,0,.2,0,.2,0v-.4c0,0-.4-1.2-.4-1.2l-.2-1.2-.2-1,.2-1.2.2-.9.6-.7.6-.6.8-.4h.6c0-.1.9-.2.9-.2l.9.3,1,.4.5.4.7.5.4.7.5.8.2.7.2.6.2,1.1v2l-.4,1.2-.5.8-.4.6-.8.7-1,.3-.9.4h-.6c0,0,0,.8,0,.8v.8c.1,0,.2,1,.2,1v1.2c0,0,0,1.1,0,1.1l-.3,1.9-.2,1.4-.2,1.4v1s0,1.4,0,1.4v.8c.1,0,.4.8.4.8l.3.7h0s0,0,0,0Z"/>
  <path class="st1" d="M29.2,44.2h-.8c0,0-.7-.3-.7-.3l-.7-.4-.7-.5-.3-.5-.3-.6v-.7c-.1,0-.1-1-.1-1l.3-.7.5-.8.6-.6.6-.6.7-.4.6-.2h1.3c0,0,.6.2.6.2l.5.3.5.4.4.3.3.5.2.6v.8c0,0,.1.5.1.5v.8l-.2.6-.3.7-.5.6-.8.7-.9.3h-.9q0,.1,0,.1ZM28.5,43.4h.7c0,0,.7,0,.7,0l.7-.2.7-.6.5-.5.3-.6.2-.5v-1.1s-.1-.7-.1-.7l-.2-.4-.2-.3-.3-.2-.4-.3-.4-.2h-.5c0,0-.7-.2-.7-.2h-.9c0,.1-.6.5-.6.5l-.5.6-.5.5-.4.7-.2.5v1.4c0,0,.3.5.3.5l.2.3.5.4.5.3.6.2h0Z"/>
</svg>