<?xml version="1.0" encoding="UTF-8"?><svg id="Layer_1" xmlns="http://www.w3.org/2000/svg" viewBox="0 0 50 50"><defs><style>.cls-1{fill:#ab08ff;}.cls-2{fill:#fffdee;}</style></defs><rect class="cls-2" x="1.5" y="1.5" width="47" height="47" rx="8.5166" ry="8.5166"/><path class="cls-1" d="M39.9833,3c3.869,0,7.0167,3.1477,7.0167,7.0167v29.9665c0,3.869-3.1477,7.0167-7.0167,7.0167H10.0167c-3.869,0-7.0167-3.1477-7.0167-7.0167V10.0167c0-3.869,3.1477-7.0167,7.0167-7.0167h29.9665M39.9833,0H10.0167C4.4846,0,0,4.4846,0,10.0167v29.9665c0,5.5321,4.4846,10.0167,10.0167,10.0167h29.9665c5.5321,0,10.0167-4.4846,10.0167-10.0167V10.0167c0-5.5321-4.4846-10.0167-10.0167-10.0167h0Z"/><path class="cls-1" d="M26.7685,36.2385h-.8561l-.328-.4686-.3009-.7934-.3501-.9156-.1379-.9375-.0791-1.502.0268-1.073.2352-1.4373.1808-1.3686.33-1.8025v-1.0368l-.0506-1.1894-.1013-.9623-.1039-.8327-.1392-1.4965,1.2258-.1401.7703-.356.8573-.3004.6213-.5559.3548-.5419.4356-.7261.3018-.9447v-1.7591l-.1914-.9329-.2002-.5265-.1901-.5702-.4946-.767-.344-.5733-.5893-.4243-.4502-.3791-.8523-.3314-.6554-.2034-.6415.0664-.4934.1121-.6465.3344-.4648.4648-.4689.5135-.1745.6542-.1431,1.0492.145.894.1782,1.1455.2832,1.1841.2382,1.5086-1.2008-.1287-.8431.0723-.7808.1464-.9367.2958-.6896.2955-.734.3796-1.025.5348-.4246-1.4859-.3589-.5036-.3225-.5107-.3679-.7883-.7619-1.4776v-1.8336l.2217-.9698.4083-1.1161.4625-.7616.5621-.8833.6623-.6889.7221-.6686.8188-.5186,1.1005-.5623,1.5666-.6527,1.1227-.3203,1.245-.2914,1.5448-.0796h2.1621l1.6299.1603.9858.3012.8016.3436,1.3627,1.2264.6793.8695.7892,1.2892.4919.8471.3526,1.4103.1881,1.164v2.6983l-.1105.9946-.4941,1.3999-.617.9658-.5297.8211-.4457.5293-.8766.7945-1.0305.5846-.7986.4132-.2321.2852-.2511.5023-.0213.5114.05.7752.0764,1.0436.1547,1.2122.0778,1.219.0747.896.3829,1.7111.3008,1.5792.4016.9296v1.0366l-.5643.3385-.4012.2942-1.3928.6696-1.35.4684-.5749.1535ZM26.328,35.4402h.3357l.4595-.1227,1.2651-.44,1.2854-.618.3713-.2723.2083-.125v-.4196l-.371-.8589-.316-1.6592-.3909-1.746-.0801-.9621-.0765-1.1977-.1543-1.2085-.0008-.0107-.0775-1.0592-.0529-.8195.0302-.7246.3669-.7338.3924-.4822.9393-.486.9334-.5299.7714-.6991.3784-.4493.5013-.777.5666-.8869.433-1.2268.0955-.8596v-2.59l-.1724-1.0672-.317-1.2679-.4328-.7453-.7583-1.2386-.6083-.7786-1.2125-1.0912-.6404-.2745-.8683-.2653-1.5119-.1487h-2.1126l-1.4425.0749-1.1662.273-1.0499.3-1.5091.6288-1.0256.5253-.7263.46-.6599.6111-.5824.6066-.5172.8127-.4154.6842-.3642.9955-.1904.8329v1.5498l.6836,1.3265.3498.7496.2894.4583.4197.5876.1935.6772.1583-.0826.7609-.3936.7525-.3225,1.0204-.3222.8673-.1626.9595-.0822.2413.0259-.0708-.4485-.2834-1.185-.1827-1.1747-.1636-1.0091.1659-1.2169.2376-.891.6191-.6774.5588-.5589.8471-.4382.6397-.1454.852-.0881.8512.2652.9888.3845.5284.445.6982.5027.4253.7088.5388.8352.2193.6578.2145.5632.2207,1.0757v1.9646l-.3678,1.1515-.4957.8256-.4165.6362-.8178.7317-.9711.3403-.8521.3939-.5768.0659.0662.7119.1031.8255.1043.991.0524,1.2397v1.1178l-.3395,1.8543-.1808,1.3672-.2273,1.3893-.0247.9871.0755,1.4337.1197.8137.3191.8345.266.7012.0325.0465Z"/><path class="cls-1" d="M29.2119,44.2001l-.8059-.0784-.7396-.2367-.6561-.3875-.6781-.534-.2573-.4832-.3001-.6363-.1203-.7164v-1.0135l.271-.6622.4637-.8179.5887-.5991.5908-.6263.7248-.4262.6487-.1926h.5832l.7229.0867.6251.0918.5299.2822.4516.3734.3864.2928.3308.505.248.6016.0692.7881.0444.4889v.8164l-.2452.6468-.3496.6681-.5377.6443-.8241.7008-.8929.3193-.8724.104ZM28.5481,43.4323l.6562.0639.7188-.0857.6982-.2496.6811-.5792.4514-.5409.2954-.5645.1849-.4877v-.6565l-.0416-.4583-.0599-.6825-.182-.4414-.2282-.3484-.3074-.2334-.4028-.333-.3603-.1919-.5004-.0735-.6676-.0799h-.4398l-.4694.1393-.5652.3323-.5298.5615-.5269.5362-.3964.6992-.202.4935v.8175l.0947.5636.2552.5411.1764.3306.526.4142.5481.3237.5935.1899Z"/></svg>