<?xml version="1.0" encoding="UTF-8"?>
<svg id="Layer_1" xmlns="http://www.w3.org/2000/svg" version="1.1" viewBox="0 0 50.9 50.9">
  <!-- Generator: Adobe Illustrator 29.1.0, SVG Export Plug-In . SVG Version: 2.1.0 Build 142)  -->
  <defs>
    <style>
      .st0 {
        fill: #ff2376;
      }

      .st0, .st1 {
        stroke: #ff2376;
        stroke-miterlimit: 10;
      }

      .st1 {
        fill: #fffdee;
        stroke-width: 3px;
      }
    </style>
  </defs>
  <rect class="st1" x=".5" y=".5" width="50" height="50" rx="10" ry="10"/>
  <g>
    <path class="st0" d="M12.9,31h0c-.2,0-.4-.2-.4-.4v-1.4c-.1,0-.4-1.8-.4-1.8h0v-2.4c-.1,0-.3-.9-.3-.9l.8-1.1.9-1.3.8-1.2,1-1.5,1.2-1.6,1.4-1.6,1.4-1.1,1.4-.9,1.5-.8,1.1-.6,1.6-.7,1.3-.4h1.3l1,.2h.3v-2.6l-.2-1.5-.2-2.1,2.2,2.1,1.3.9,1.2,1.1,1.1.9h0l1.5,1.4,1.1,1,.4.3.3.3.4.4.2.4-.2.6-.4.5-.9.8-1.6,1.6-1.2,1.1-1,1.1-.7,1.1-1.1,1.4-.5.5h-.8l-.2-.9v-4.2c-.1,0-.1-1.2-.1-1.2l-1.1-.2-1.4.2-1.1.4-1,.4-1,.5-1.6,1.1-1.2.9-1.2,1-1.1.9-.8.7-1.2,1.3-.8,1-.7.9-.8,1.4-.4,1-.6,1.4-.4,1.2c0,.2-.2.3-.4.3h.3ZM12.8,27.4l.3,1.8v.3-.2c.1,0,.7-1.4.7-1.4l.4-1,.9-1.5.7-1,.8-1,1.3-1.3.8-.7,1.1-.9,1.2-1,1.3-.9,1.6-1.1,1-.6,1-.4,1.1-.4,1.6-.3,1.6.3v1.7c.1,0,.2,1.6.2,1.6v2.8c.1,0,.3-.2.3-.2l1.1-1.3.7-1.1,1-1.2,1.2-1.1,1.6-1.6.8-.8.3-.4v-.3h0c0-.1-.3-.4-.3-.4l-.3-.3-.4-.3-1.2-1-1.5-1.4-1.1-.9h0l-1.1-1.1-1.3-.9-1-.9v.3l.2,1.5v3.7l-1.1-.3-.9-.2h-1.2l-1.1.4-1.5.7-1.1.6-1.5.8-1.3.9-1.4,1.1-1.4,1.6-1.2,1.5-.9,1.5-.8,1.2-.9,1.3-.7.9v.7c.1,0,.3,2.4.3,2.4v-.2s.1,0,0,0h0Z"/>
    <path class="st0" d="M22.9,45.1h-.4l-.3-.2-.8-.5h0l-.7-.6-.9-.7h0l-1-1-1.7-1.5h0l-1-1-1-.9h0l-.8-1.1-.6-.7v-.6s0-.2.1-.3l.2-.2h.1l1.1-.5,1.2-.8h0l2-.8,1.7-.7,2-.8.7-.3h.4c.2,0,.4.2.4.4v3.7c.1,0,.4.5.4.5l.5.4.7.3h1.6l.8-.2.9-.6h0l1.4-.8,1.6-1.1,1-1,.9-1.2.9-1.1.6-1.1.6-1.3.4-1,.5-1.3.3-1.4v-1.2l.2-1.3v-.6c0-.2,0-.4.2-.4s.4,0,.5.2v.3l1.3,1.7.8.9,1,1v.3l-.3,1.2-.3,1.5h0l-.8,2.1-.6,1.8h0l-.8,1.8h0l-.8,1.4h0l-1.3,1.9h0l-1.2,1.5h0l-1.3,1.2h0l-1.8.8h0l-1.1.3h-2.7v-.2l-1.7-.4h0l-1.2-.5h0l-.7-.4h-.2v4.1c-.1.2-.3.4-.5.4l-.5.5h0ZM22.5,44.3h0v-3.3h0v-.6c.2-.2.3-.3.5-.3h.7l.7.5,1.1.4,1.7.4h2.6l1.1-.3,1.7-.8,1.3-1.1,1.1-1.4,1.2-1.9.8-1.4.8-1.7.6-1.8.8-2.1.3-1.5.2-1.1-.9-.9-.9-.9h0l-.8-1.2v.9l-.2,1.2h0l-.3,1.5h0l-.5,1.3-.4,1-.6,1.3h0l-.6,1.1h0l-.9,1.2-.9,1.2h0l-1,1h0l-1.6,1.2h0l-1.5.8-.9.6h-.1l-.9.3h-1.9l-.8-.4h0l-.6-.5h-.1l-.3-.7v-2h-.1v-1.7l-.6.2-2,.8-1.7.7-1.9.8-1.2.8h0l-1.1.5h0l.6.7h0l.8,1.1,1,.8h0l1,1,1.7,1.5,1,1,.9.7.7.5.8.5h-.4,0ZM21.7,43.8h0ZM29,41.6h0ZM30.1,41.4h0ZM25.9,41h0ZM32.9,40.3h0ZM17.5,40.1h0ZM17.5,40.1h0ZM16,39.6h0ZM34.2,39.2h0ZM35.3,37.7h0ZM14.2,37.6h0ZM14.2,37.6h0ZM26.6,37.3h0ZM27.4,37.1h0ZM27.4,37.1h0ZM28.6,37.1h0ZM24.3,37h0ZM14.1,36.5h0ZM23.5,36.1h0ZM29.7,35.7h0ZM14.9,35.4h0ZM37.3,34.5h0ZM38.1,32.7h0ZM34.1,31.2h0ZM36.2,26.6h0ZM36.2,26.6h0ZM36.5,25.2h0ZM38.8,23.9h0ZM38.7,23.9h0Z"/>
  </g>
</svg>