<?xml version="1.0" encoding="UTF-8"?>
<svg id="Layer_1" xmlns="http://www.w3.org/2000/svg" version="1.1" viewBox="0 0 58 58">
  <!-- Generator: Adobe Illustrator 29.1.0, SVG Export Plug-In . SVG Version: 2.1.0 Build 142)  -->
  <defs>
    <style>
      .st0 {
        stroke-miterlimit: 10;
        stroke-width: 1px;
      }

      .st0, .st1, .st2 {
        fill: #ff2376;
      }

      .st0, .st1, .st2, .st3 {
        stroke: #ff2376;
      }

      .st1 {
        stroke-miterlimit: 10;
        stroke-width: 1px;
      }

      .st2, .st3 {
        stroke-miterlimit: 10;
      }

      .st3 {
        fill: #fffdee;
        stroke-width: 4px;
      }
    </style>
  </defs>
  <rect class="st3" x="2" y="2" width="54" height="54" rx="9.9" ry="9.9"/>
  <g>
    <polygon class="st2" points="31.9 42.1 31.1 42.1 31.1 41.6 31.8 41.6 33 41.5 34.7 41.1 36.2 40.8 37.7 40.5 39.1 40.2 39.9 39.8 40.3 39.2 40.4 38.9 40.3 38.6 39.8 38.2 39.1 37.8 38.2 37.5 36.9 37 35.9 36.7 34.9 36.5 32.7 36.5 31.2 36.6 29.7 36.6 28.6 36.7 27 36.8 25.1 37.1 24.3 37.2 22.3 37.6 20.7 38 19.8 38.4 18.8 38.7 18.2 39 17.7 39.4 17.7 39.5 17.7 39.8 18.2 40.3 18.6 40.7 18.9 40.9 19.7 41.1 20.8 41.2 22.1 41.3 23.1 41.4 25.1 41.4 25.4 41.5 25.4 41.9 25 41.9 23.1 41.9 22 41.8 20.8 41.7 19.6 41.6 18.7 41.3 18.3 41 17.9 40.7 17.3 40 17.1 39.5 17.3 39 18 38.6 18.6 38.3 19.7 37.9 20.6 37.6 22.2 37.1 24.2 36.8 25 36.6 25 36.6 26.9 36.4 28.5 36.2 29.7 36.1 31.2 36.1 32.7 36 35 36 36 36.2 37 36.6 38.3 37.1 39.3 37.4 40.1 37.8 40.7 38.4 40.9 38.9 40.7 39.4 40.2 40.2 39.2 40.6 37.8 41 36.3 41.3 34.8 41.6 33.1 41.9 31.9 42.1"/>
    <path class="st2" d="M27.8,43.6l-1-.3-.7-.4-.7-.6-.3-.6v-.7l.2-.8.5-.9.7-.9.8-.6,1.1-.2,1.1.3.8.6.6.5.5.7v.7l-.2,1.1-.7.9-.8.6-.6.3h-1.2v.3h0ZM27,42.9l.8.2h1l.5-.4.7-.6.6-.8.2-.9v-.6l-.3-.5-.5-.5-.8-.5-.9-.3-.8.2-.7.5-.6.8-.4.8v.7c-.1,0-.1.5-.1.5l.2.5.5.5.6.3h0Z"/>
    <rect class="st1" x="28.1" y="36.6" width=".5" height="1.4" transform="translate(-2.4 2) rotate(-3.8)"/>
    <polygon class="st2" points="17.7 39.4 17.3 39.1 17.9 38.3 18.8 37.3 19.6 36.2 20.4 35.1 20.9 34 21.4 33 21.9 31.8 22.3 30.5 22.6 29.4 22.9 28 23.2 26.6 23.4 25.1 23.5 23.6 23.8 22.1 24.1 20.6 24.5 19.7 25.2 19.3 26.2 18.5 27.2 18.1 28.2 17.9 29.2 17.5 30.4 17.4 31.9 17.4 32.9 17.7 33.9 18.2 34.7 18.7 35.4 19.2 36 19.7 36.5 20.4 36.8 21.4 37.2 22.4 37.5 24 37.5 25.6 37.4 26.6 37.4 27.9 37.4 29 37.4 29 37.3 30.2 37.5 31.4 37.6 32.4 37.6 33.6 37.9 34.5 38.3 35.4 39 36.3 39.6 37.1 40.1 37.8 39.8 38.1 39.2 37.4 38.6 36.6 38.6 36.6 37.8 35.6 37.4 34.7 37.1 33.7 37.1 32.4 37 31.5 36.8 30.2 36.9 29 36.9 27.9 36.9 27.9 36.9 26.6 37 25.6 37 24 36.8 22.6 36.4 21.5 36.1 20.7 35.6 20 35.1 19.6 34.4 19.1 33.6 18.6 32.7 18.2 31.8 17.8 30.4 17.8 29.3 18 28.3 18.4 27.3 18.6 26.4 18.9 25.4 19.7 24.9 20 24.6 20.7 24.3 22.2 24 23.6 23.9 25.1 23.7 26.7 23.4 28.1 23.1 29.5 22.8 30.6 22.4 32 21.8 33.2 21.3 34.2 20.8 35.4 20 36.5 19.1 37.6 18.3 38.6 17.7 39.4"/>
    <polygon class="st2" points="28.6 18 27.8 17.4 27.5 16.7 27.5 15.7 28.2 15.1 29 14.7 30 14.4 31 14.4 31.9 14.5 32.6 15 33.1 15.8 33.2 16.8 32.7 17.3 32.2 17.6 32 17.8 31.7 17.4 32 17.2 32.4 17 32.7 16.6 32.7 16 32.2 15.3 31.7 15 30.9 14.8 30.1 14.8 29.2 15.1 28.5 15.5 28 15.9 28 16.6 28.2 17.1 28.9 17.6 28.6 18"/>
    <polygon class="st2" points="29.1 17.7 29 17.4 29 16.9 29.3 16.3 29.7 15.8 30.2 15.6 30.9 15.6 31.3 16.1 31.2 16.9 31.1 17.6 30.7 17.6 30.7 16.8 30.8 16.2 30.7 16 30.3 16 30 16.2 29.7 16.5 29.5 17 29.5 17.3 29.6 17.5 29.1 17.7"/>
    <rect class="st0" x="30.7" y="41.6" width=".4" height=".5" transform="translate(-3 2.4) rotate(-4.2)"/>
  </g>
</svg>