<?xml version="1.0" encoding="UTF-8"?>
<svg id="Layer_1" xmlns="http://www.w3.org/2000/svg" version="1.1" viewBox="0 0 54 54">
  <!-- Generator: Adobe Illustrator 29.1.0, SVG Export Plug-In . SVG Version: 2.1.0 Build 142)  -->
  <defs>
    <style>
      .st0 {
        fill: none;
        stroke-width: 4px;
      }

      .st0, .st1 {
        stroke: #ff2376;
        stroke-miterlimit: 10;
      }

      .st2 {
        fill: #ff2376;
      }

      .st1 {
        fill: #ab08ff;
      }

      .st3 {
        fill: #fffdee;
      }
    </style>
  </defs>
  <rect class="st3" x="3.5" y="3.5" width="47" height="47" rx="8.5" ry="8.5"/>
  <polygon class="st1" points="13.8 35.1 13.1 34.6 12.7 33.9 12.4 32.9 12 31.7 12 29.1 12.8 29.1 12.8 31.6 13.1 32.7 13.5 33.6 13.8 34 14 34.2 14.4 34 14.9 33.6 15.4 32.6 15.8 31.9 16.2 30.6 16.5 29.3 16.6 28 16.8 26.9 16.8 23.4 16.7 22.3 16.7 21.8 16.6 21.4 16.5 21.2 16.1 21.1 15.8 21.1 15.1 21.4 14.7 21.9 14.2 22.5 13.7 23.1 13.4 23.8 13.2 24.7 13 25.7 12.2 25.6 12.4 24.5 12.6 23.5 13 22.7 13.5 22 14.1 21.3 14.6 20.8 15.5 20.2 16.3 20.2 17 20.5 17.4 21 17.5 21.7 17.5 22.2 17.6 23.3 17.6 27 17.5 28.1 17.3 29.5 17 30.8 16.6 32.2 16.1 33 15.5 34.1 14.8 34.8 13.8 35.1"/>
  <polygon class="st1" points="8.8 29.8 7.6 29.4 7.4 28.4 7.4 27.5 7.6 26.7 8.2 26.1 9.5 25.5 14.6 25.5 14.6 26.6 9.7 26.6 8.8 27 8.6 27.2 8.5 27.6 8.5 28.3 8.5 28.6 8.8 28.7 9.3 28.6 11 28.6 11.9 28.4 13.4 28.4 14.4 28.3 14.5 29.3 13.4 29.5 12 29.5 11.1 29.6 9.5 29.6 8.8 29.8"/>
  <polygon class="st1" points="17.3 34.7 15 34.7 15 33.9 17.2 33.9 17.8 33.7 18.2 33.2 18.9 31.5 19.3 29.7 19.5 28.2 19.7 26.8 19.8 25.2 19.8 24.1 19.6 23 19.3 21.9 19.2 21.2 19.1 20.9 18.9 20.8 18.6 20.8 17.6 20.9 16.4 21.1 16.3 20.2 17.5 20.1 18.6 20 19.1 20 19.7 20.4 20 20.9 20.1 21.7 20.4 22.8 20.6 24.1 20.6 25.2 20.5 26.9 20.4 28.3 20.1 29.8 19.7 31.8 18.9 33.6 18.3 34.4 17.3 34.7"/>
  <polygon class="st1" points="31.1 29.2 20 29.2 20 28.4 31.1 28.4 33.6 28.2 36.2 28.2 37.5 28 38 28 38 28.8 37.6 28.8 36.3 29.1 33.6 29.1 31.1 29.2"/>
  <polygon class="st1" points="29.7 26.8 25.8 26.8 22.7 26.7 20.8 26.6 20.1 26.6 20.2 25.7 20.9 25.8 22.7 25.9 25.8 26 29.6 26 30.7 25.8 32.2 25.8 33.7 25.5 35.1 25.5 36.4 25.3 38.2 25 38.4 25.8 36.5 26.2 35.2 26.3 33.8 26.3 32.2 26.6 30.8 26.6 29.7 26.8"/>
  <polygon class="st1" points="36.8 34.4 35.6 33.9 34.9 32.9 34.4 31.9 34.2 31 34 29.8 33.8 29.1 34.7 28.9 34.8 29.7 35 30.8 35.2 31.6 35.7 32.5 36.2 33.2 36.9 33.5 37.7 33.5 38.3 33.1 39.1 32.7 39.6 31.9 40.2 30.7 40.4 29.8 40.6 28.7 40.6 25.1 40.4 24 40.3 23 39.9 22.1 39.5 21.5 39.2 21 38.8 20.6 38.3 20.3 37.9 19.9 37.3 19.8 36.6 19.9 36.2 20.3 35.7 20.8 35.4 21.5 35 22.6 34.6 23.8 34.5 24.6 34.5 25.6 33.6 25.6 33.6 24.6 33.8 23.6 34.2 22.3 34.7 21.2 35 20.4 35.6 19.8 36.1 19.2 37.3 18.9 38.2 19.2 38.8 19.6 39.3 20 39.9 20.4 40.2 21.1 40.6 21.7 41.1 22.8 41.3 23.8 41.4 25 41.4 28.8 41.3 30 41 31 40.3 32.3 39.7 33.3 38.7 33.9 37.9 34.3 36.8 34.4"/>
  <polygon class="st2" points="39.7 34.2 38.8 34.2 38.4 34 38.3 33.8 38.8 33.4 38.9 33.3 38.9 33.3 38.9 33.3 39 33.3 39 33.4 39.6 33.4 40.7 33.2 41 32.8 41.7 31.6 42.2 30.2 42.7 28.2 42.7 26.4 42.5 25.1 42.3 23.6 42.1 22.2 41.5 20.9 40.5 20 38 20 38 19.1 40.8 19.1 42.2 20.4 42.9 22 43.1 23.4 43.3 25 43.5 26.3 43.5 28.3 43 30.5 42.4 32 41.7 33.2 41.2 33.9 39.7 34.2"/>
  <polygon class="st1" points="46 27.9 43.7 27.9 43.7 27.1 45.6 27.1 45.6 27 45.7 26.3 45.7 25.6 45.5 25.4 43.6 25.4 43.6 24.6 45.7 24.6 46.6 25.2 46.6 26.4 46.4 27.3 46 27.9"/>
  <rect class="st0" x="2" y="2" width="50" height="50" rx="10.1" ry="10.1"/>
</svg>