<?xml version="1.0" encoding="UTF-8"?>
<svg id="Layer_1" xmlns="http://www.w3.org/2000/svg" version="1.1" viewBox="0 0 50 50">
  <!-- Generator: Adobe Illustrator 29.1.0, SVG Export Plug-In . SVG Version: 2.1.0 Build 142)  -->
  <defs>
    <style>
      .st0 {
        fill: #ab08ff;
      }

      .st1 {
        fill: #fffdee;
      }
    </style>
  </defs>
  <g>
    <rect class="st1" x="1.5" y="1.5" width="47" height="47" rx="8.5" ry="8.5"/>
    <path class="st0" d="M40,3c3.9,0,7,3.2,7,7v29.9c0,3.9-3.2,7-7,7H10c-3.9,0-7-3.2-7-7V10c0-3.9,3.2-7,7-7h29.9M40,0H10C4.5,0,0,4.5,0,10v29.9c0,5.5,4.5,10,10,10h29.9c5.5,0,10-4.5,10-10V10c0-5.5-4.5-10-10-10h0Z"/>
  </g>
  <g>
    <path class="st0" d="M12.1,30.2s0,0,0,0c-.2,0-.4-.2-.4-.4v-1.4c-.1,0-.4-1.8-.4-1.8h0s-.1-2.4-.1-2.4l-.2-.9.8-1.1.9-1.3.8-1.2,1-1.5,1.2-1.6,1.4-1.6,1.4-1.1,1.4-.9,1.5-.8,1.1-.6,1.6-.7,1.3-.4h1.3c0,0,1,.2,1,.2h.3c0,0,0-2.6,0-2.6l-.2-1.5-.2-2.1,2.2,2.1,1.3.9,1.2,1.1,1.1.9h0s1.5,1.4,1.5,1.4l1.1,1,.4.3.3.3.4.4.2.4-.2.6-.4.5-.9.8-1.6,1.6-1.2,1.1-1,1.1-.7,1.1-1.1,1.4-.5.5h-.8s-.2-.9-.2-.9v-2.6c0,0-.1-1.6-.1-1.6v-1.2c0,0-1.1-.2-1.1-.2l-1.4.2-1.1.4-1,.4-1,.5-1.6,1.1-1.2.9-1.2,1-1.1.9-.8.7-1.2,1.3-.8,1-.7.9-.8,1.4-.4,1-.6,1.4-.4,1.2c0,.2-.2.3-.4.3ZM12,26.6l.3,1.8v.3s.1-.2.1-.2l.6-1.4.4-1,.9-1.5.7-1,.8-1,1.3-1.3.8-.7,1.1-.9,1.2-1,1.3-.9,1.6-1.1,1-.6,1-.4,1.1-.4,1.6-.3,1.6.3v1.7c.1,0,.2,1.6.2,1.6v2.6c0,0,.1.2.1.2l.2-.2,1.1-1.3.7-1.1,1-1.2,1.2-1.1,1.6-1.6.8-.8.3-.4v-.3c0,0,0-.1,0-.1l-.3-.3-.3-.3-.4-.3-1.2-1-1.5-1.4-1.1-.9h0s-1.1-1.1-1.1-1.1l-1.3-.9-1-.9v.3s.2,1.5.2,1.5v3.7l-1.1-.3-.9-.2h-1.2c0,0-1.1.4-1.1.4l-1.5.7-1.1.6-1.5.8-1.3.9-1.4,1.1-1.4,1.6-1.2,1.5-.9,1.5-.8,1.2-.9,1.3-.7.9v.7c.1,0,.3,2.4.3,2.4Z"/>
    <path class="st0" d="M22.1,44.3h-.2c0,0-.1,0-.2,0l-.3-.2-.8-.5s0,0,0,0l-.7-.6-.9-.7s0,0,0,0l-1-1-1.7-1.5s0,0,0,0l-1-1-1-.9s0,0,0,0l-.8-1.1-.6-.7c0,0,0-.2,0-.3v-.3c0-.1,0-.2.1-.3l.2-.2s0,0,.1,0l1.1-.5,1.2-.8s0,0,0,0l2-.8,1.7-.7,2-.8.7-.3s0,0,.1,0h.3c.2,0,.4.2.4.4v3.7c.1,0,.4.5.4.5l.5.4.7.3h1.6s.8-.2.8-.2l.9-.6s0,0,0,0l1.4-.8,1.6-1.1,1-1,.9-1.2.9-1.1.6-1.1.6-1.3.4-1,.5-1.3.3-1.4v-1.2c.1,0,.2-1.3.2-1.3v-.6c0-.2,0-.4.2-.4.2,0,.4,0,.5.2v.3c.1,0,1.3,1.7,1.3,1.7l.8.9,1,1c0,0,.1.2,0,.3l-.3,1.2-.3,1.5s0,0,0,0l-.8,2.1-.6,1.8s0,0,0,0l-.8,1.8s0,0,0,0l-.8,1.4s0,0,0,0l-1.3,1.9s0,0,0,0l-1.2,1.5s0,0,0,0l-1.3,1.2s0,0,0,0l-1.8.8s0,0,0,0l-1.1.3s0,0,0,0h-1.2c0,.2,0,.2,0,.1h-1.5c0-.1,0-.2,0-.2l-1.7-.4s0,0,0,0l-1.2-.5s0,0,0,0l-.7-.4h-.2s0,.4,0,.4v2.5c0,0-.1,1.2-.1,1.2,0,.2-.2.4-.4.4ZM21.7,43.5h0c0,0,0-.8,0-.8v-2.5c0,0,0,0,0,0v-.6c.2-.2.3-.3.5-.3h.5c0,0,.2,0,.2,0l.7.5,1.1.4,1.7.4h1.5c0,.1,1.1,0,1.1,0l1.1-.3,1.7-.8,1.3-1.1,1.1-1.4,1.2-1.9.8-1.4.8-1.7.6-1.8.8-2.1.3-1.5.2-1.1-.9-.9-.9-.9s0,0,0,0l-.8-1.2v.9c0,0-.2,1.2-.2,1.2,0,0,0,0,0,0l-.3,1.5s0,0,0,0l-.5,1.3-.4,1-.6,1.3s0,0,0,0h0s-.6,1.1-.6,1.1c0,0,0,0,0,0l-.9,1.2-.9,1.2s0,0,0,0l-1,1s0,0,0,0l-1.6,1.2s0,0,0,0l-1.5.8-.9.6s0,0-.1,0l-.9.3s0,0-.1,0h-1.6c0,0-.1,0-.2,0l-.8-.4s0,0,0,0l-.6-.5s0,0-.1-.1l-.3-.6s0,0,0-.2v-1.8c-.1,0-.1,0-.1,0v-1.7l-.6.2-2,.8-1.7.7-1.9.8-1.2.8s0,0,0,0l-1.1.5h0c0,.1.6.7.6.7,0,0,0,0,0,0l.8,1.1,1,.8s0,0,0,0l1,1,1.7,1.5,1,1,.9.7.7.5.8.5ZM20.9,43h0s0,0,0,0ZM28.2,40.8s0,0,0,0h0ZM29.3,40.6s0,0,0,0h0ZM25.1,40.2h0s0,0,0,0ZM32.1,39.5s0,0,0,0h0ZM16.7,39.3h0s0,0,0,0ZM16.7,39.3h0s0,0,0,0ZM15.2,38.8s0,0,0,0h0ZM33.4,38.4s0,0,0,0h0ZM34.5,36.9s0,0,0,0h0ZM13.4,36.8s0,0,0,0h0ZM13.4,36.8s0,0,0,0h0ZM25.8,36.5h0s0,0,0,0ZM26.6,36.3s0,0,0,0h0ZM26.6,36.3h0s0,0,0,0ZM27.8,36.3h0s0,0,0,0ZM23.5,36.2h0s0,0,0,0ZM13.3,35.7h0s0,0,0,0ZM22.7,35.3h0s0,0,0,0ZM28.9,34.9s0,0,0,0h0ZM14.1,34.6s0,0,0,0h0ZM36.5,33.7s0,0,0,0h0ZM37.3,31.9s0,0,0,0h0ZM33.3,30.4s0,0,0,0h0ZM35.4,25.8s0,0,0,0h0ZM35.4,25.8s0,0,0,0h0ZM35.7,24.4h0s0,0,0,0ZM38,23.1h0s0,0,0,0ZM37.9,23.1h0s0,0,0,0Z"/>
  </g>
</svg>