<?xml version="1.0" encoding="UTF-8"?>
<svg id="Layer_1" xmlns="http://www.w3.org/2000/svg" version="1.1" viewBox="0 0 50 50">
  <!-- Generator: Adobe Illustrator 29.1.0, SVG Export Plug-In . SVG Version: 2.1.0 Build 142)  -->
  <defs>
    <style>
      .st0, .st1 {
        fill: #ab08ff;
      }

      .st1 {
        stroke: #ab08ff;
        stroke-miterlimit: 10;
      }

      .st2 {
        fill: #fffdee;
      }
    </style>
  </defs>
  <rect class="st2" x="1.5" y="1.5" width="47" height="47" rx="8.5" ry="8.5"/>
  <path class="st0" d="M40,3c3.9,0,7,3.1,7,7v30c0,3.9-3.1,7-7,7H10c-3.9,0-7-3.1-7-7V10c0-3.9,3.1-7,7-7h30M40,0H10C4.5,0,0,4.5,0,10v30c0,5.5,4.5,10,10,10h30c5.5,0,10-4.5,10-10V10c0-5.5-4.5-10-10-10h0Z"/>
  <polygon class="st1" points="13 47.7 12.2 47.7 12.2 46.4 12.1 45.7 12 45.1 12 39 12 38.8 8.9 38.8 8.3 38.9 7.9 39 7.5 39.2 7.3 39.3 7.2 39.5 7 39.7 7 39.9 7 42.1 6.9 42.8 6.9 45.5 6.8 46.4 6.8 47.7 6 47.7 6 46.3 6.1 45.5 6.1 42.8 6.2 42.1 6.2 39.7 6.3 39.4 6.5 39.1 6.7 38.8 7.1 38.5 7.6 38.3 8.1 38.2 8.8 38 12.4 38 12.7 38.4 12.8 39 12.8 45.1 12.9 45.6 13 46.3 13 47.7"/>
  <polygon class="st1" points="23.4 49 22.6 49 22.6 47.8 22.5 45.8 22.5 40.3 22.4 39.5 22.4 38.8 22.3 38.1 22.3 36.5 22.2 35.5 22.2 33 22.1 32.7 22.1 32.5 19.9 32.5 18.7 32.5 17.7 32.6 16.9 32.8 16.3 33 15.8 33.2 15.6 33.3 15.5 33.3 15.5 33.4 15.5 33.7 15.5 34.4 15.5 35.3 15.7 36.3 15.7 38.8 15.6 39.9 15.6 41.9 15.5 42.8 15.5 46.1 15.5 46.9 15.5 47.6 15.4 48.3 15.4 49 14.6 49 14.6 48.3 14.7 47.5 14.7 46.9 14.7 46.1 14.7 42.8 14.8 41.9 14.8 39.9 14.9 38.8 14.9 36.3 14.7 35.4 14.7 34.5 14.7 33.7 14.7 33.3 14.7 32.9 15.2 32.6 15.5 32.5 16 32.3 16.7 32 17.6 31.9 18.7 31.8 19.9 31.7 22.5 31.7 22.9 32.1 22.9 32.6 23 33 23 35.5 23.1 36.5 23.1 38 23.2 38.8 23.2 39.5 23.3 40.3 23.3 45.8 23.4 47.7 23.4 49"/>
  <polygon class="st1" points="26.3 48.9 25.5 48.9 25.6 47.6 25.6 43.2 25.7 41.3 25.7 37.3 25.6 35.9 25.5 34.7 25.3 32.6 25.3 31.2 25.1 30.1 25 28.6 24.9 27.3 24.7 25.2 24.7 22.9 24.9 22.4 25.4 22 26.2 21.9 27.3 21.7 32.3 21.7 32.7 22.1 32.7 24.1 32.6 24.9 32.5 25.8 32.5 26.8 32.5 27.8 32.4 28.9 32.5 29.8 32.5 31.2 32.5 32.3 32.5 34.2 32.6 34.9 32.6 35.9 32.7 36.4 32.7 37.4 32.7 39.3 32.7 46 32.9 47.9 32.9 48.8 32.1 48.8 32.1 47.9 31.9 46 31.9 39.3 31.9 37.4 31.9 36.4 31.8 35.9 31.8 35 31.7 34.3 31.7 32.3 31.7 32.3 31.7 31.2 31.7 29.9 31.6 28.9 31.7 27.8 31.7 26.8 31.7 25.8 31.8 24.8 31.9 24 31.9 22.4 27.4 22.4 26.3 22.6 25.8 22.7 25.6 22.8 25.5 23 25.5 25.1 25.7 27.2 25.8 28.5 25.9 30 26.1 31.1 26.1 32.6 26.3 34.6 26.4 35.8 26.5 37.2 26.5 41.3 26.4 43.2 26.4 47.6 26.3 48.9"/>
  <polygon class="st1" points="36.5 48.9 35.7 48.8 35.8 47.7 35.7 46 35.9 44.1 35.9 41.4 35.7 40 35.6 37.4 35.4 36.5 35.4 34.1 35.6 32.3 35.5 30.4 35.4 28.8 35.7 26.6 35.7 22.9 35.9 21 35.9 19 35.8 17.2 35.9 16.6 36.6 16.3 37 16.1 37.8 16.1 38.6 16.2 39.6 16.3 40.6 16.3 41.2 16.2 41.9 16.2 42.4 16.1 43 16.3 43 17.4 42.8 19 42.7 20.6 42.6 21.9 42.5 23.3 42.5 25.6 42.5 25.6 42.5 26.9 42.5 29.5 42.4 31.4 42.4 32.7 42.3 35.3 42.3 36.4 42.4 38.6 42.4 40.6 42.4 40.6 42.4 42.7 42.5 44.9 42.5 47.3 42.5 48.9 41.7 48.9 41.7 47.3 41.7 44.9 41.6 42.7 41.6 40.6 41.6 38.6 41.5 36.4 41.5 35.3 41.6 32.6 41.6 31.4 41.7 29.5 41.7 26.9 41.7 25.6 41.7 23.2 41.8 21.8 41.9 20.6 42.1 19 42.2 17.4 42.2 16.9 41.9 16.9 41.3 16.9 40.6 17 39.6 17 38.5 16.9 37.7 16.8 37.2 16.8 36.9 17 36.7 17.1 36.6 17.2 36.7 19 36.7 21 36.5 22.9 36.5 26.6 36.2 28.8 36.3 30.4 36.4 32.4 36.2 34.1 36.2 36.4 36.4 37.4 36.4 37.4 36.5 39.9 36.7 41.3 36.7 44.2 36.5 46 36.6 47.8 36.5 48.9"/>
</svg>