<?xml version="1.0" encoding="UTF-8"?><svg id="Layer_1" xmlns="http://www.w3.org/2000/svg" viewBox="0 0 50 50"><defs><style>.cls-1{fill:none;}.cls-2{fill:#ab08ff;}.cls-3{fill:#fffdee;}</style></defs><rect class="cls-3" x="1.5" y="1.5" width="47" height="47" rx="8.5034" ry="8.5034"/><path class="cls-2" d="M39.9967,3c3.8616,0,7.0033,3.1417,7.0033,7.0033v29.9934c0,3.8616-3.1417,7.0033-7.0033,7.0033H10.0033c-3.8616,0-7.0033-3.1417-7.0033-7.0033V10.0033c0-3.8616,3.1417-7.0033,7.0033-7.0033h29.9934M39.9967,0H10.0033C4.4786,0,0,4.4786,0,10.0033v29.9934c0,5.5247,4.4786,10.0033,10.0033,10.0033h29.9934c5.5247,0,10.0033-4.4786,10.0033-10.0033V10.0033c0-5.5247-4.4786-10.0033-10.0033-10.0033h0Z"/><rect class="cls-1" x="-.777" y="-1.2644" width="50" height="50"/><polygon class="cls-2" points="13.0195 49 12.2224 49 12.2224 47.7157 12.1486 47.0459 12.0424 46.4393 12.0424 40.3643 11.9962 40.104 8.9064 40.104 8.3196 40.2141 7.9248 40.3232 7.5272 40.4891 7.3027 40.6472 7.1517 40.8422 7.0317 41.067 6.9514 41.2059 6.9514 43.4178 6.8742 44.1468 6.8742 46.8184 6.7971 47.7046 6.7971 49 6 49 6 47.6741 6.0771 46.7879 6.0771 44.1097 6.1543 43.3807 6.1543 41.016 6.3279 40.7156 6.4682 40.4521 6.7286 40.116 7.1211 39.8396 7.6492 39.6192 8.1286 39.4868 8.8275 39.3556 12.4452 39.3556 12.7421 39.7536 12.8395 40.3023 12.8395 46.3782 12.9402 46.9578 13.0195 47.6771 13.0195 49"/><polygon class="cls-2" points="23.3815 49 22.5844 49 22.5844 47.7564 22.4559 45.8398 22.4559 40.3261 22.3787 39.5297 22.3787 38.8067 22.3016 38.0752 22.3016 36.5327 22.2245 35.5443 22.2245 33.0301 22.1473 32.6544 22.1473 32.4512 19.9102 32.4512 18.7259 32.5222 17.6888 32.6409 16.902 32.7528 16.2622 33.0293 15.801 33.1977 15.5949 33.2751 15.5393 33.3143 15.5393 33.4117 15.4663 33.7386 15.5393 34.4154 15.5393 35.3303 15.7192 36.26 15.7184 38.8375 15.6421 39.9025 15.6421 41.8979 15.5393 42.8215 15.5393 46.1206 15.4621 46.8894 15.4621 47.5509 15.3593 48.3162 15.3593 49 14.5622 49 14.5622 48.2692 14.665 47.5039 14.665 46.8542 14.7422 46.0855 14.7422 42.7825 14.845 41.8588 14.845 39.8773 14.9222 38.7998 14.9222 36.3275 14.7422 35.3977 14.7422 34.4531 14.6609 33.6986 14.7422 33.3342 14.7422 32.9403 15.2008 32.6171 15.5105 32.5008 15.9619 32.3359 16.6707 32.0288 17.5866 31.8987 18.6522 31.7767 19.8975 31.7028 22.4921 31.7028 22.9444 32.1107 22.9444 32.5829 23.0215 32.9586 23.0215 35.517 23.0987 36.5053 23.0987 38.0383 23.1758 38.7698 23.1758 39.4958 23.253 40.2922 23.253 45.8162 23.3815 47.7329 23.3815 49"/><polygon class="cls-2" points="26.3121 48.9008 25.5163 48.8577 25.5928 47.6132 25.5931 43.1932 25.6699 41.3159 25.6699 37.253 25.5934 35.8783 25.5168 34.6757 25.3099 32.6258 25.3099 31.1877 25.1064 30.0686 25.0023 28.5541 24.8996 27.2522 24.7443 25.1615 24.7443 22.8561 24.9012 22.3654 25.4416 21.9792 26.1844 21.858 27.3218 21.6842 32.2879 21.6842 32.6894 22.1096 32.6894 24.08 32.5592 24.8728 32.5089 25.7953 32.458 26.8229 32.4579 27.812 32.4326 28.9279 32.5094 29.8412 32.509 31.249 32.4581 32.3004 32.4833 34.2226 32.5858 34.9443 32.6115 35.8839 32.6894 36.3919 32.6894 37.3987 32.7151 39.2952 32.7151 45.9754 32.9465 47.8681 32.9465 48.8036 32.1494 48.8036 32.1494 47.9109 31.918 46.0182 31.918 39.2976 31.8923 37.4011 31.8923 36.4455 31.8159 35.947 31.7901 35.0036 31.6869 34.2768 31.6608 32.2881 31.6613 32.2773 31.7123 31.2236 31.7123 29.8708 31.6348 28.9494 31.6609 27.8 31.6613 26.7968 31.7127 25.7587 31.7653 24.7965 31.8923 24.0227 31.8923 22.4326 27.3863 22.4326 26.3145 22.5964 25.7696 22.6852 25.5901 22.8136 25.5413 22.9661 25.5413 25.1354 25.6946 27.1986 25.7976 28.5041 25.8991 29.9813 26.107 31.1243 26.107 32.5904 26.312 34.6246 26.3893 35.8378 26.467 37.2334 26.4667 41.3375 26.3899 43.2148 26.3899 47.6347 26.3121 48.9008"/><polygon class="cls-2" points="36.4676 48.8876 35.6735 48.8227 35.7744 47.7336 35.7229 45.9941 35.9034 44.1306 35.9034 41.3859 35.6731 39.9896 35.5701 37.4432 35.4406 36.4946 35.4414 34.0532 35.558 32.3343 35.5179 30.4233 35.4397 28.8045 35.672 26.5857 35.672 22.8989 35.9034 20.9868 35.9034 18.9631 35.8247 17.1528 35.9493 16.5607 36.5536 16.2838 37.0414 16.0834 37.7884 16.0834 38.6141 16.1587 39.6128 16.2759 40.5679 16.253 41.2336 16.1808 41.8646 16.1571 42.4082 16.0676 43 16.348 43 17.4112 42.8435 19.0319 42.6653 20.6091 42.6396 21.8637 42.486 23.2825 42.5115 25.6329 42.5114 25.6383 42.4858 26.9142 42.4858 29.5032 42.3827 31.4387 42.3529 32.6621 42.3315 35.3135 42.3315 36.4424 42.3828 38.6109 42.4344 40.6206 42.4343 40.6273 42.4087 42.717 42.5115 44.8634 42.5115 47.2618 42.5024 48.8572 41.7053 48.8531 41.7144 47.2598 41.7144 44.8803 41.6114 42.7295 41.6372 40.6254 41.5859 38.6283 41.5344 36.4466 41.5344 35.3091 41.5559 32.6478 41.5863 31.4065 41.6887 29.4846 41.6887 26.9037 41.7143 25.6297 41.6885 23.2484 41.8433 21.8186 41.8691 20.5624 42.0506 18.9558 42.2029 17.3773 42.2029 16.8612 41.9498 16.9029 41.2953 16.9275 40.6239 17.0002 39.5734 17.0255 38.5205 16.902 37.7499 16.8318 37.2081 16.8318 36.8809 16.9662 36.6546 17.07 36.6249 17.2109 36.7005 18.9555 36.7005 21.0292 36.4691 22.9413 36.4691 26.6224 36.2385 28.8242 36.3147 30.4039 36.3556 32.3508 36.2377 34.0889 36.2377 36.4468 36.3652 37.3813 36.366 37.398 36.4679 39.9178 36.7005 41.3283 36.7005 44.1646 36.521 46.0177 36.5724 47.7557 36.4676 48.8876"/></svg>