<?xml version="1.0" encoding="UTF-8"?>
<svg xmlns="http://www.w3.org/2000/svg" version="1.1" viewBox="0 0 53 53">
  <defs>
    <style>
      .cls-1, .cls-2, .cls-3 {
        fill: #1174b9;
      }

      .cls-2 {
        stroke-width: .5px;
      }

      .cls-2, .cls-4, .cls-3 {
        stroke: #1174b9;
        stroke-miterlimit: 10;
      }

      .cls-4 {
        fill: #fffdee;
        stroke-width: 3px;
      }
    </style>
  </defs>
  <!-- Generator: Adobe Illustrator 28.7.4, SVG Export Plug-In . SVG Version: 1.2.0 Build 166)  -->
  <g>
    <g id="Layer_1">
      <rect class="cls-4" x="1.5" y="1.5" width="50" height="50" rx="10.3" ry="10.3"/>
      <polygon class="cls-3" points="30.4 42.4 29.5 42.4 29.5 41.8 30.3 41.8 31.7 41.7 33.7 41.3 35.5 40.9 37.3 40.6 38.9 40.1 39.9 39.7 40.3 39 40.4 38.7 40.3 38.3 39.7 37.8 38.9 37.4 37.8 37 36.2 36.4 35.1 36.1 34 35.8 31.4 35.8 29.6 36 27.8 36 26.5 36 24.6 36.2 22.4 36.5 21.5 36.7 19.2 37.1 17.2 37.6 16.2 38 15 38.5 14.3 38.8 13.7 39.2 13.6 39.4 13.7 39.7 14.3 40.3 14.8 40.7 15.1 41 16.1 41.3 17.4 41.4 18.8 41.5 20.1 41.6 22.4 41.6 22.8 41.7 22.7 42.2 22.3 42.2 20.1 42.2 18.8 42.1 17.3 42 16 41.8 14.9 41.5 14.4 41.2 13.9 40.8 13.2 40 13 39.3 13.3 38.8 14 38.3 14.8 38 16 37.5 17.1 37.1 19 36.6 21.3 36.1 22.3 35.9 22.3 35.9 24.6 35.7 26.4 35.5 27.8 35.4 29.6 35.4 31.3 35.3 34 35.3 35.3 35.5 36.4 35.9 38 36.5 39.2 36.9 40.1 37.3 40.7 38 41 38.7 40.8 39.3 40.2 40.1 39 40.7 37.4 41.1 35.6 41.5 33.8 41.8 31.8 42.2 30.4 42.4"/>
      <path class="cls-3" d="M25.6,44.2l-1.1-.3-.9-.4-.8-.7-.4-.8v-.8l.2-.9.6-1.1.8-1,.9-.7,1.3-.2,1.3.4,1,.7.7.6.5.8v.9l-.2,1.3-.8,1.1-1,.7-.7.4h-1.4q0,.1,0,.1ZM24.7,43.4l1,.3h1.2c0-.1.6-.4.6-.4l.9-.7.7-.9.2-1.1v-.7l-.4-.6-.6-.6-.9-.6-1.1-.3-1,.2-.8.6-.7.9-.5.9-.2.8v.6l.3.5.6.6.7.4h0Z"/>
      <rect class="cls-1" x="25.9" y="35.9" width=".6" height="1.6" transform="translate(-2.4 1.8) rotate(-3.8)"/>
      <polygon class="cls-3" points="13.7 39.2 13.3 38.8 14 38 15 36.8 16 35.5 16.9 34.2 17.4 32.9 18.1 31.7 18.7 30.3 19.1 28.7 19.5 27.5 19.8 25.8 20.2 24.2 20.4 22.4 20.6 20.6 20.9 18.9 21.3 17.1 21.8 16.1 22.5 15.6 23.7 14.6 24.9 14.2 26 13.9 27.2 13.5 28.6 13.3 30.4 13.3 31.6 13.7 32.7 14.3 33.7 14.9 34.5 15.5 35.2 16 35.8 16.9 36.2 18 36.7 19.3 37 21.1 37 23 36.9 24.2 36.8 25.7 36.9 27 36.8 27 36.8 28.4 37 29.8 37.1 31 37.1 32.4 37.5 33.5 37.9 34.5 38.7 35.6 39.5 36.6 40.1 37.4 39.7 37.7 39 36.9 38.3 36 38.3 36 37.4 34.8 36.9 33.7 36.6 32.5 36.6 31.1 36.4 29.9 36.2 28.4 36.3 27 36.3 25.7 36.3 25.7 36.3 24.2 36.4 22.9 36.4 21.2 36.2 19.4 35.7 18.2 35.3 17.2 34.8 16.4 34.2 15.9 33.4 15.4 32.4 14.7 31.4 14.3 30.3 13.9 28.6 13.9 27.3 14 26.2 14.5 25 14.8 24 15.1 22.8 16 22.2 16.4 21.8 17.3 21.5 19 21.1 20.7 21 22.4 20.7 24.3 20.4 25.9 20 27.6 19.6 28.9 19.2 30.5 18.6 32 17.9 33.2 17.4 34.5 16.4 35.8 15.4 37.1 14.4 38.3 13.7 39.2"/>
      <polygon class="cls-3" points="26.5 14 25.6 13.4 25.3 12.5 25.3 11.4 26.1 10.6 27 10.1 28.2 9.8 29.3 9.8 30.4 9.9 31.2 10.5 31.8 11.5 32 12.7 31.4 13.3 30.8 13.6 30.5 13.8 30.2 13.3 30.5 13.2 31 12.8 31.4 12.5 31.3 11.7 30.8 10.9 30.2 10.5 29.3 10.3 28.3 10.3 27.2 10.6 26.4 11.1 25.9 11.6 25.9 12.4 26 13 26.8 13.5 26.5 14"/>
      <polygon class="cls-2" points="27.2 13.7 27 13.3 27 12.8 27.3 12 27.8 11.4 28.4 11.2 29.2 11.2 29.7 11.8 29.6 12.8 29.5 13.6 28.9 13.5 29 12.7 29.1 12 28.9 11.7 28.5 11.7 28.1 11.9 27.8 12.3 27.6 12.9 27.6 13.2 27.7 13.5 27.2 13.7"/>
      <rect class="cls-1" x="29" y="41.8" width=".5" height=".6" transform="translate(-3 2.3) rotate(-4.2)"/>
    </g>
  </g>
</svg>