<?xml version="1.0" encoding="UTF-8"?><svg id="Layer_1" xmlns="http://www.w3.org/2000/svg" viewBox="0 0 53 53"><defs><style>.cls-1{fill:#1174b9;}.cls-2{fill:#fffdee;stroke:#1174b9;stroke-miterlimit:10;stroke-width:3px;}</style></defs><rect class="cls-2" x="1.5" y="1.5" width="50" height="50" rx="10.2599" ry="10.2599"/><polygon class="cls-1" points="30.3647 42.3639 29.4976 42.3639 29.4976 41.8012 30.3388 41.8012 31.6898 41.6767 33.6937 41.2616 35.5067 40.9171 37.259 40.5558 38.8626 40.146 39.8535 39.7001 40.2741 39.0458 40.3694 38.6783 40.2511 38.3104 39.7321 37.7756 38.9405 37.3883 37.7885 37.0101 36.2486 36.4485 35.1424 36.0738 33.9706 35.8291 31.3601 35.8291 29.632 35.9516 27.8118 35.9516 26.4726 36.046 24.6089 36.2269 22.4096 36.4793 21.4571 36.677 19.1602 37.1291 17.2389 37.6319 16.2018 38.0074 15.0164 38.4743 14.2811 38.8245 13.7124 39.2037 13.6414 39.3633 13.7425 39.7252 14.2792 40.3492 14.792 40.7212 15.1445 41.0096 16.0816 41.2606 17.3988 41.403 18.8306 41.5117 20.111 41.6196 22.3587 41.6196 22.779 41.6556 22.7312 42.2162 22.3347 42.1824 20.0873 42.1824 18.7845 42.0725 17.3427 41.9629 15.9779 41.8154 14.8819 41.5218 14.4421 41.1619 13.8957 40.7662 13.2343 39.9972 13.045 39.3198 13.2644 38.826 14.0027 38.3338 14.8012 37.9543 16.0065 37.4796 17.0715 37.094 19.0431 36.5786 21.347 36.1251 22.3201 35.9232 22.3327 35.9217 24.5522 35.6671 26.4293 35.4849 27.792 35.3889 29.6121 35.3889 31.3402 35.2664 34.0288 35.2664 35.2907 35.5299 36.4384 35.9188 37.977 36.4799 39.1529 36.8657 40.0675 37.3133 40.7466 38.0129 40.955 38.6615 40.7962 39.2743 40.2366 40.1447 39.0492 40.6791 37.379 41.1056 35.614 41.4695 33.801 41.8139 31.7729 42.2342 30.3647 42.3639"/><path class="cls-1" d="M25.6171,44.2283l-1.1323-.3124-.8584-.4487-.7727-.7132-.38-.751v-.7942l.1962-.9223.5751-1.0544.7998-1.0283.9353-.6965,1.2561-.2431,1.2672.3762.996.6512.714.6368.5394.8058v.8744l-.215,1.2705-.8277,1.1036-.9771.728-.7399.38-1.3759.1376ZM24.6922,43.3894l.9733.2685,1.1653-.1165.6034-.3098.8744-.6515.6971-.9294.1843-1.0893v-.6562l-.4045-.6043-.6293-.5612-.8919-.5831-1.0563-.3136-.9948.1925-.771.5742-.725.9321-.514.9423-.1668.7841v.6007l.2735.5406.6432.5937.739.3863Z"/><rect class="cls-1" x="25.8863" y="35.9174" width=".5627" height="1.6379" transform="translate(-2.3848 1.8213) rotate(-3.8126)"/><polygon class="cls-1" points="13.711 39.1869 13.2658 38.8427 13.9546 37.9524 14.9692 36.7566 15.994 35.4981 16.863 34.2035 17.4368 32.9303 18.0535 31.715 18.6594 30.343 19.1083 28.7269 19.4684 27.4663 19.8131 25.7983 20.1904 24.2171 20.4057 22.3687 20.5521 20.5938 20.9187 18.926 21.2874 17.0822 21.7509 16.0545 22.4804 15.5616 23.6924 14.6106 24.9004 14.2276 26.0245 13.9421 27.1851 13.4632 28.6014 13.2932 30.419 13.2932 31.6135 13.7324 32.7122 14.2538 33.7015 14.8889 34.5444 15.4936 35.2145 16.0488 35.8414 16.9108 36.2164 18.0172 36.6973 19.2748 36.9773 21.1228 36.9773 22.9645 36.8681 24.2274 36.8321 25.6835 36.8503 26.9742 36.85 26.9815 36.7964 28.393 36.9752 29.8475 37.1225 31.0193 37.1225 32.4336 37.4502 33.5158 37.9027 34.5253 38.7157 35.6389 39.4678 36.5599 40.1189 37.368 39.6807 37.721 39.0304 36.9139 38.2703 35.983 38.2658 35.9769 37.4134 34.8094 36.922 33.7132 36.5598 32.5169 36.5598 31.0546 36.4168 29.9169 36.2324 28.4168 36.2875 26.9675 36.2693 25.6806 36.2695 25.6751 36.306 24.1961 36.4146 22.9402 36.4146 21.1652 36.15 19.4191 35.6852 18.2029 35.3359 17.1725 34.8011 16.437 34.2005 15.9394 33.3794 15.3504 32.4386 14.7468 31.3954 14.2517 30.3189 13.8559 28.6351 13.8559 27.3286 14.0127 26.202 14.4776 25.0469 14.771 23.9597 15.1161 22.812 16.0167 22.1982 16.4314 21.8267 17.2552 21.4688 19.0443 21.1098 20.6777 20.9652 22.4291 20.7455 24.3153 20.3614 25.9248 20.0153 27.6008 19.6496 28.8807 19.1906 30.5329 18.5587 31.963 17.9445 33.1734 17.3566 34.4778 16.4467 35.8333 15.4002 37.1184 14.3878 38.3116 13.711 39.1869"/><polygon class="cls-1" points="26.5388 14.0167 25.5656 13.3725 25.2873 12.4735 25.2873 11.3781 26.0727 10.6414 27.0025 10.1183 28.2158 9.7717 29.3334 9.7717 30.4348 9.9492 31.2417 10.5285 31.848 11.4986 32.002 12.6651 31.3503 13.2719 30.7881 13.6279 30.5283 13.8065 30.2096 13.3427 30.4826 13.1553 31.0051 12.8244 31.4062 12.451 31.3061 11.6933 30.8233 10.9209 30.2143 10.4836 29.2883 10.3344 28.2946 10.3344 27.2207 10.6412 26.4079 11.0984 25.85 11.6218 25.85 12.3884 26.0437 13.0142 26.8494 13.5475 26.5388 14.0167"/><polygon class="cls-1" points="27.1608 13.677 27.0118 13.2958 27.0118 12.7983 27.2995 12.0174 27.7726 11.4368 28.4031 11.1694 29.2373 11.1694 29.7058 11.8436 29.6058 12.7522 29.5074 13.6068 28.9484 13.5424 29.0467 12.6892 29.1234 11.9916 28.9431 11.7321 28.5174 11.7321 28.1207 11.9004 27.795 12.3 27.5745 12.8987 27.5745 13.1897 27.6849 13.4721 27.1608 13.677"/><rect class="cls-1" x="29.0056" y="41.8193" width=".4926" height=".5627" transform="translate(-3.0163 2.2647) rotate(-4.2165)"/></svg>