<?xml version="1.0" encoding="UTF-8"?>
<svg id="Layer_1" xmlns="http://www.w3.org/2000/svg" version="1.1" viewBox="0 0 50 50">
  <!-- Generator: Adobe Illustrator 29.1.0, SVG Export Plug-In . SVG Version: 2.1.0 Build 142)  -->
  <defs>
    <style>
      .st0, .st1 {
        fill: #ab08ff;
      }

      .st1 {
        stroke: #ab08ff;
        stroke-miterlimit: 10;
      }

      .st2 {
        fill: #fffdee;
      }
    </style>
  </defs>
  <g>
    <rect class="st2" x="1.5" y="1.5" width="47" height="47" rx="8.6" ry="8.6"/>
    <path class="st0" d="M39.9,3c3.9,0,7.1,3.2,7.1,7.1v29.9c0,3.9-3.2,7.1-7.1,7.1H10.1c-3.9,0-7.1-3.2-7.1-7.1V10.1c0-3.9,3.2-7.1,7.1-7.1h29.9M39.9,0H10.1C4.5,0,0,4.5,0,10.1v29.9c0,5.6,4.5,10.1,10.1,10.1h29.9c5.6,0,10.1-4.5,10.1-10.1V10.1c0-5.6-4.5-10.1-10.1-10.1h0Z"/>
  </g>
  <g>
    <polygon class="st1" points="27.9 38.1 27.1 38.1 27.1 37.6 27.8 37.6 29 37.5 30.7 37.1 32.2 36.8 33.7 36.5 35.1 36.2 35.9 35.8 36.3 35.2 36.4 34.9 36.3 34.6 35.8 34.2 35.1 33.8 34.2 33.5 32.9 33 31.9 32.7 30.9 32.5 28.7 32.5 27.2 32.6 25.7 32.6 24.6 32.7 23 32.8 21.1 33.1 20.3 33.2 18.3 33.6 16.7 34 15.8 34.4 14.8 34.7 14.2 35 13.7 35.4 13.7 35.5 13.7 35.8 14.2 36.3 14.6 36.7 14.9 36.9 15.7 37.1 16.8 37.2 18.1 37.3 19.1 37.4 21.1 37.4 21.4 37.5 21.4 37.9 21 37.9 19.1 37.9 18 37.8 16.8 37.7 15.6 37.6 14.7 37.3 14.3 37 13.9 36.7 13.3 36 13.1 35.5 13.3 35 14 34.6 14.6 34.3 15.7 33.9 16.6 33.6 18.2 33.1 20.2 32.8 21 32.6 21 32.6 22.9 32.4 24.5 32.2 25.7 32.1 27.2 32.1 28.7 32 31 32 32 32.2 33 32.6 34.3 33.1 35.3 33.4 36.1 33.8 36.7 34.4 36.9 34.9 36.7 35.4 36.2 36.2 35.2 36.6 33.8 37 32.3 37.3 30.8 37.6 29.1 37.9 27.9 38.1"/>
    <path class="st1" d="M23.8,39.6l-1-.3-.7-.4-.7-.6-.3-.6v-.7l.2-.8.5-.9.7-.9.8-.6,1.1-.2,1.1.3.8.6.6.5.5.7v.7l-.2,1.1-.7.9-.8.6-.6.3h-1.2v.3ZM23,38.9l.8.2h1l.5-.4.7-.6.6-.8.2-.9v-.6l-.3-.5-.5-.5-.8-.5-.9-.3-.8.2-.7.5-.6.8-.4.8v.7c-.1,0-.1.5-.1.5l.2.5.5.5.6.3h0Z"/>
    <rect class="st1" x="24.1" y="32.6" width=".5" height="1.4" transform="translate(-2.2 1.7) rotate(-3.8)"/>
    <polygon class="st1" points="13.7 35.4 13.3 35.1 13.9 34.3 14.8 33.3 15.6 32.2 16.4 31.1 16.9 30 17.4 29 17.9 27.8 18.3 26.5 18.6 25.4 18.9 24 19.2 22.6 19.4 21.1 19.5 19.6 19.8 18.1 20.1 16.6 20.5 15.7 21.2 15.3 22.2 14.5 23.2 14.1 24.2 13.9 25.2 13.5 26.4 13.4 27.9 13.4 28.9 13.7 29.9 14.2 30.7 14.7 31.4 15.2 32 15.7 32.5 16.4 32.8 17.4 33.2 18.4 33.5 20 33.5 21.6 33.4 22.6 33.4 23.9 33.4 25 33.4 25 33.3 26.2 33.5 27.4 33.6 28.4 33.6 29.6 33.9 30.5 34.3 31.4 35 32.3 35.6 33.1 36.1 33.8 35.8 34.1 35.2 33.4 34.6 32.6 34.6 32.6 33.8 31.6 33.4 30.7 33.1 29.7 33.1 28.4 33 27.5 32.8 26.2 32.9 25 32.9 23.9 32.9 23.9 32.9 22.6 33 21.6 33 20 32.8 18.6 32.4 17.5 32.1 16.7 31.6 16 31.1 15.6 30.4 15.1 29.6 14.6 28.7 14.2 27.8 13.8 26.4 13.8 25.3 14 24.3 14.4 23.3 14.6 22.4 14.9 21.4 15.7 20.9 16 20.6 16.7 20.3 18.2 20 19.6 19.9 21.1 19.7 22.7 19.4 24.1 19.1 25.5 18.8 26.6 18.4 28 17.8 29.2 17.3 30.2 16.8 31.4 16 32.5 15.1 33.6 14.3 34.6 13.7 35.4"/>
    <polygon class="st1" points="24.6 14 23.8 13.4 23.5 12.7 23.5 11.7 24.2 11.1 25 10.7 26 10.4 27 10.4 27.9 10.5 28.6 11 29.1 11.8 29.2 12.8 28.7 13.3 28.2 13.6 28 13.8 27.7 13.4 28 13.2 28.4 13 28.7 12.6 28.7 12 28.2 11.3 27.7 11 26.9 10.8 26.1 10.8 25.2 11.1 24.5 11.5 24 11.9 24 12.6 24.2 13.1 24.9 13.6 24.6 14"/>
    <polygon class="st1" points="25.1 13.7 25 13.4 25 12.9 25.3 12.3 25.7 11.8 26.2 11.6 26.9 11.6 27.3 12.1 27.2 12.9 27.1 13.6 26.7 13.6 26.7 12.8 26.8 12.2 26.7 12 26.3 12 26 12.2 25.7 12.5 25.5 13 25.5 13.3 25.6 13.5 25.1 13.7"/>
    <rect class="st1" x="26.7" y="37.6" width=".4" height=".5" transform="translate(-2.7 2.1) rotate(-4.2)"/>
  </g>
</svg>