<?xml version="1.0" encoding="UTF-8"?><svg id="Layer_1" xmlns="http://www.w3.org/2000/svg" viewBox="0 0 50 50"><defs><style>.cls-1{fill:#1174b9;}.cls-2{fill:#fffdee;}</style></defs><rect class="cls-2" x="1.5" y="1.5" width="47" height="47" rx="8.478" ry="8.478"/><path class="cls-1" d="M40.0221,3c3.8477,0,6.9779,3.1303,6.9779,6.9779v30.0441c0,3.8477-3.1303,6.9779-6.9779,6.9779H9.9779c-3.8477,0-6.9779-3.1303-6.9779-6.9779V9.9779c0-3.8477,3.1303-6.9779,6.9779-6.9779h30.0441M40.0221,0H9.9779C4.4673,0,0,4.4673,0,9.9779v30.0441c0,5.5107,4.4673,9.9779,9.9779,9.9779h30.0441c5.5107,0,9.9779-4.4673,9.9779-9.9779V9.9779c0-5.5107-4.4673-9.9779-9.9779-9.9779h0Z"/><polygon class="cls-1" points="11.842 33.0597 11.1458 32.6092 10.7267 31.9322 10.3582 30.9403 10.0167 29.7281 10.0167 27.1445 10.847 27.1445 10.847 29.6134 11.1483 30.6827 11.4762 31.5656 11.7535 32.0135 11.9679 32.1522 12.3952 32.0208 12.8862 31.5938 13.389 30.6386 13.8214 29.8501 14.1819 28.5625 14.4946 27.3118 14.6269 25.9891 14.811 24.8847 14.811 21.3772 14.7038 20.2903 14.7038 19.7718 14.606 19.3607 14.4744 19.216 14.1007 19.0668 13.7586 19.0668 13.125 19.4382 12.6933 19.8699 12.156 20.5096 11.7265 21.1413 11.3878 21.7944 11.1881 22.6931 11.0294 23.6982 10.2093 23.5687 10.372 22.5382 10.6008 21.5085 11.0121 20.7153 11.4931 20.0078 12.0808 19.3083 12.6133 18.7758 13.5332 18.2366 14.2603 18.2366 14.96 18.5159 15.3641 18.9604 15.5341 19.6743 15.5341 20.2495 15.6413 21.3364 15.6413 24.9534 15.4504 26.0988 15.3148 27.4545 14.9831 28.7807 14.5953 30.1658 14.1188 31.0347 13.5485 32.1182 12.8074 32.7626 11.842 33.0597"/><polygon class="cls-1" points="6.8413 27.8226 5.5758 27.4189 5.4378 26.382 5.4378 25.5483 5.5802 24.7017 6.2032 24.0881 7.5453 23.5471 12.5671 23.5471 12.5671 24.5894 7.7474 24.5894 6.7861 24.9769 6.5521 25.2074 6.4801 25.6353 6.4801 26.3129 6.5219 26.6266 6.8444 26.7295 7.303 26.586 8.9674 26.586 9.9407 26.4172 11.3552 26.4172 12.3863 26.2547 12.5485 27.2843 11.4369 27.4595 10.0305 27.4595 9.0572 27.6283 7.4622 27.6283 6.8413 27.8226"/><polygon class="cls-1" points="15.2814 32.7104 13.0188 32.7104 13.0188 31.8801 15.1709 31.8801 15.8014 31.7093 16.1727 31.173 16.8659 29.5299 17.3092 27.6784 17.5326 26.2095 17.6512 24.8079 17.7572 23.1607 17.7572 22.1389 17.5764 20.977 17.3397 19.8722 17.1621 19.1874 17.0549 18.9347 16.8799 18.8258 16.6133 18.8258 15.5927 18.9305 14.4436 19.0641 14.3477 18.2393 15.5052 18.1048 16.5708 17.9955 17.1172 17.9955 17.7167 18.3687 17.9504 18.9195 18.1497 19.6896 18.3932 20.8261 18.5875 22.0747 18.5866 23.2007 18.4788 24.8737 18.3576 26.307 18.1248 27.8378 17.6574 29.7897 16.9043 31.5749 16.3114 32.4313 15.2814 32.7104"/><polygon class="cls-1" points="29.1189 27.1823 18.0384 27.1823 18.0384 26.352 29.1011 26.352 31.6088 26.2449 34.2092 26.2449 35.5127 25.977 36.0369 25.977 36.0369 26.8073 35.5971 26.8073 34.2936 27.0751 31.6266 27.0751 29.1189 27.1823"/><polygon class="cls-1" points="27.6836 24.7985 23.8254 24.7983 20.6719 24.691 18.8086 24.6097 18.139 24.5559 18.2056 23.7283 18.8675 23.7815 20.7062 23.8614 23.8465 23.9682 27.6239 23.9682 28.7359 23.8075 30.1598 23.8075 31.7391 23.5129 33.1148 23.5129 34.3919 23.3305 36.2337 23.0102 36.3759 23.8282 34.5155 24.1516 33.1739 24.3432 31.8159 24.3432 30.2366 24.6378 28.7956 24.6378 27.6836 24.7985"/><polygon class="cls-1" points="34.8339 32.3876 33.6228 31.9293 32.948 30.9171 32.4338 29.9459 32.1738 28.959 31.957 27.7922 31.8498 27.069 32.6712 26.9474 32.7772 27.663 32.9872 28.7918 33.2121 29.6415 33.6621 30.4915 34.1658 31.2471 34.9367 31.5388 35.6539 31.4518 36.3252 31.1401 37.0791 30.6925 37.5807 29.9043 38.2183 28.7312 38.44 27.8441 38.569 26.7429 38.569 23.0553 38.4388 21.9567 38.2619 21.047 37.8897 20.1288 37.4721 19.4763 37.2102 18.9763 36.7641 18.624 36.3224 18.2603 35.8604 17.9419 35.2991 17.7919 34.5598 17.9356 34.2025 18.314 33.7416 18.8476 33.4483 19.5322 33.0245 20.618 32.6098 21.7844 32.4614 22.6294 32.4614 23.6335 31.6311 23.6335 31.6311 22.557 31.8041 21.5721 32.2487 20.3221 32.6824 19.2113 33.0292 18.4023 33.5925 17.7506 34.1394 17.1715 35.3286 16.9403 36.2134 17.1768 36.8229 17.5968 37.2886 17.9803 37.8636 18.4343 38.1909 19.0591 38.6304 19.7458 39.0616 20.8096 39.2615 21.8437 39.3992 23.0063 39.3992 26.7914 39.2585 27.9936 38.9982 29.0349 38.2889 30.338 37.6732 31.3054 36.713 31.8755 35.8844 32.2602 34.8339 32.3876"/><polygon class="cls-1" points="37.7029 32.1908 36.8496 32.1908 36.4065 31.9693 36.2673 31.7837 36.8137 31.3739 36.8654 31.2704 36.9172 31.2963 36.9316 31.2855 36.9531 31.3143 37.0456 31.3605 37.6329 31.3605 38.6913 31.1808 38.9831 30.7723 39.6508 29.6424 40.1667 28.2234 40.7107 26.1511 40.7107 24.3596 40.504 23.1341 40.3132 21.551 40.0825 20.2177 39.5213 18.9247 38.4743 17.9635 36.0329 17.9635 36.0329 17.1332 38.7976 17.1332 40.2128 18.4323 40.8837 19.9783 41.1363 21.4411 41.3272 23.0249 41.541 24.2899 41.541 26.2582 40.9601 28.4713 40.4047 29.9985 39.6796 31.2256 39.1679 31.942 37.7029 32.1908"/><polygon class="cls-1" points="44.0404 25.9235 41.7151 25.9235 41.7151 25.0932 43.5653 25.0932 43.5977 25.0381 43.7319 24.3436 43.7319 23.6363 43.4577 23.446 41.5656 23.446 41.5656 22.6157 43.7177 22.6157 44.5622 23.202 44.5622 24.4232 44.3858 25.3357 44.0404 25.9235"/></svg>