<?xml version="1.0" encoding="UTF-8"?>
<svg id="Layer_1" xmlns="http://www.w3.org/2000/svg" version="1.1" viewBox="0 0 50 50">
  <!-- Generator: Adobe Illustrator 29.1.0, SVG Export Plug-In . SVG Version: 2.1.0 Build 142)  -->
  <defs>
    <style>
      .st0, .st1 {
        fill: #ab08ff;
      }

      .st1 {
        stroke: #ab08ff;
        stroke-miterlimit: 10;
      }

      .st2 {
        fill: #fffdee;
      }
    </style>
  </defs>
  <rect class="st2" x="1.5" y="1.5" width="47" height="47" rx="8.5" ry="8.5"/>
  <path class="st0" d="M40,3c3.8,0,7,3.1,7,7v30c0,3.8-3.1,7-7,7H10c-3.8,0-7-3.1-7-7V10c0-3.8,3.1-7,7-7h30M40,0H10C4.5,0,0,4.5,0,10v30c0,5.5,4.5,10,10,10h30c5.5,0,10-4.5,10-10V10c0-5.5-4.5-10-10-10h0Z"/>
  <polygon class="st1" points="11.8 33.1 11.1 32.6 10.7 31.9 10.4 30.9 10 29.7 10 27.1 10.8 27.1 10.8 29.6 11.1 30.7 11.5 31.6 11.8 32 12 32.2 12.4 32 12.9 31.6 13.4 30.6 13.8 29.9 14.2 28.6 14.5 27.3 14.6 26 14.8 24.9 14.8 21.4 14.7 20.3 14.7 19.8 14.6 19.4 14.5 19.2 14.1 19.1 13.8 19.1 13.1 19.4 12.7 19.9 12.2 20.5 11.7 21.1 11.4 21.8 11.2 22.7 11 23.7 10.2 23.6 10.4 22.5 10.6 21.5 11 20.7 11.5 20 12.1 19.3 12.6 18.8 13.5 18.2 14.3 18.2 15 18.5 15.4 19 15.5 19.7 15.5 20.2 15.6 21.3 15.6 25 15.5 26.1 15.3 27.5 15 28.8 14.6 30.2 14.1 31 13.5 32.1 12.8 32.8 11.8 33.1"/>
  <polygon class="st1" points="6.8 27.8 5.6 27.4 5.4 26.4 5.4 25.5 5.6 24.7 6.2 24.1 7.5 23.5 12.6 23.5 12.6 24.6 7.7 24.6 6.8 25 6.6 25.2 6.5 25.6 6.5 26.3 6.5 26.6 6.8 26.7 7.3 26.6 9 26.6 9.9 26.4 11.4 26.4 12.4 26.3 12.5 27.3 11.4 27.5 10 27.5 9.1 27.6 7.5 27.6 6.8 27.8"/>
  <polygon class="st1" points="15.3 32.7 13 32.7 13 31.9 15.2 31.9 15.8 31.7 16.2 31.2 16.9 29.5 17.3 27.7 17.5 26.2 17.7 24.8 17.8 23.2 17.8 22.1 17.6 21 17.3 19.9 17.2 19.2 17.1 18.9 16.9 18.8 16.6 18.8 15.6 18.9 14.4 19.1 14.3 18.2 15.5 18.1 16.6 18 17.1 18 17.7 18.4 18 18.9 18.1 19.7 18.4 20.8 18.6 22.1 18.6 23.2 18.5 24.9 18.4 26.3 18.1 27.8 17.7 29.8 16.9 31.6 16.3 32.4 15.3 32.7"/>
  <polygon class="st1" points="29.1 27.2 18 27.2 18 26.4 29.1 26.4 31.6 26.2 34.2 26.2 35.5 26 36 26 36 26.8 35.6 26.8 34.3 27.1 31.6 27.1 29.1 27.2"/>
  <polygon class="st1" points="27.7 24.8 23.8 24.8 20.7 24.7 18.8 24.6 18.1 24.6 18.2 23.7 18.9 23.8 20.7 23.9 23.8 24 27.6 24 28.7 23.8 30.2 23.8 31.7 23.5 33.1 23.5 34.4 23.3 36.2 23 36.4 23.8 34.5 24.2 33.2 24.3 31.8 24.3 30.2 24.6 28.8 24.6 27.7 24.8"/>
  <polygon class="st1" points="34.8 32.4 33.6 31.9 32.9 30.9 32.4 29.9 32.2 29 32 27.8 31.8 27.1 32.7 26.9 32.8 27.7 33 28.8 33.2 29.6 33.7 30.5 34.2 31.2 34.9 31.5 35.7 31.5 36.3 31.1 37.1 30.7 37.6 29.9 38.2 28.7 38.4 27.8 38.6 26.7 38.6 23.1 38.4 22 38.3 21 37.9 20.1 37.5 19.5 37.2 19 36.8 18.6 36.3 18.3 35.9 17.9 35.3 17.8 34.6 17.9 34.2 18.3 33.7 18.8 33.4 19.5 33 20.6 32.6 21.8 32.5 22.6 32.5 23.6 31.6 23.6 31.6 22.6 31.8 21.6 32.2 20.3 32.7 19.2 33 18.4 33.6 17.8 34.1 17.2 35.3 16.9 36.2 17.2 36.8 17.6 37.3 18 37.9 18.4 38.2 19.1 38.6 19.7 39.1 20.8 39.3 21.8 39.4 23 39.4 26.8 39.3 28 39 29 38.3 30.3 37.7 31.3 36.7 31.9 35.9 32.3 34.8 32.4"/>
  <polygon class="st0" points="37.7 32.2 36.8 32.2 36.4 32 36.3 31.8 36.8 31.4 36.9 31.3 36.9 31.3 36.9 31.3 37 31.3 37 31.4 37.6 31.4 38.7 31.2 39 30.8 39.7 29.6 40.2 28.2 40.7 26.2 40.7 24.4 40.5 23.1 40.3 21.6 40.1 20.2 39.5 18.9 38.5 18 36 18 36 17.1 38.8 17.1 40.2 18.4 40.9 20 41.1 21.4 41.3 23 41.5 24.3 41.5 26.3 41 28.5 40.4 30 39.7 31.2 39.2 31.9 37.7 32.2"/>
  <polygon class="st1" points="44 25.9 41.7 25.9 41.7 25.1 43.6 25.1 43.6 25 43.7 24.3 43.7 23.6 43.5 23.4 41.6 23.4 41.6 22.6 43.7 22.6 44.6 23.2 44.6 24.4 44.4 25.3 44 25.9"/>
</svg>